<?xml version="1.0" encoding="UTF-8" standalone="no"?>
<!-- Created with Inkscape (http://www.inkscape.org/) -->

<svg
   xmlns:dc="http://purl.org/dc/elements/1.1/"
   xmlns:cc="http://creativecommons.org/ns#"
   xmlns:rdf="http://www.w3.org/1999/02/22-rdf-syntax-ns#"
   xmlns:svg="http://www.w3.org/2000/svg"
   xmlns="http://www.w3.org/2000/svg"
   xmlns:sodipodi="http://sodipodi.sourceforge.net/DTD/sodipodi-0.dtd"
   xmlns:inkscape="http://www.inkscape.org/namespaces/inkscape"
   width="30"
   height="30"
   id="svg2"
   version="1.1"
   inkscape:version="0.48.4 r9939"
   sodipodi:docname="New document 1">
  <defs
     id="defs4" />
  <sodipodi:namedview
     id="base"
     pagecolor="#ffffff"
     bordercolor="#666666"
     borderopacity="1.0"
     inkscape:pageopacity="0.0"
     inkscape:pageshadow="2"
     inkscape:zoom="11.2"
     inkscape:cx="22.445492"
     inkscape:cy="9.7199032"
     inkscape:document-units="px"
     inkscape:current-layer="layer1"
     showgrid="false"
     inkscape:window-width="681"
     inkscape:window-height="743"
     inkscape:window-x="683"
     inkscape:window-y="0"
     inkscape:window-maximized="0" />
  <metadata
     id="metadata7">
    <rdf:RDF>
      <cc:Work
         rdf:about="">
        <dc:format>image/svg+xml</dc:format>
        <dc:type
           rdf:resource="http://purl.org/dc/dcmitype/StillImage" />
        <dc:title></dc:title>
      </cc:Work>
    </rdf:RDF>
  </metadata>
  <g
     inkscape:label="Layer 1"
     inkscape:groupmode="layer"
     id="layer1"
     transform="translate(0,-1022.3622)">
    <path
       style="fill:none;stroke:#000000;stroke-width:1px;stroke-linecap:butt;stroke-linejoin:miter;stroke-opacity:1"
       d="m 11.071429,1051.5586 13.571428,-2.1429 c 0,0 -3.589339,-8.4315 -4.196429,-12.7678 -0.625,-4.4643 1.607143,-11.25 1.607143,-11.25 l -13.2142852,2.7678 c 0.031014,0.023 -4.7170969,10.2568 2.2321432,23.3929 z"
       id="path2985"
       inkscape:connector-curvature="0"
       sodipodi:nodetypes="ccsccc" />
    <path
       style="fill:none;stroke:#000000;stroke-width:1px;stroke-linecap:butt;stroke-linejoin:miter;stroke-opacity:1"
       d="m 22.321429,1024.8622 -2.053572,-2.3214 -14.0178569,2.3214 2.5,3.2143 z"
       id="path2987"
       inkscape:connector-curvature="0" />
    <path
       style="fill:none;stroke:#000000;stroke-width:1px;stroke-linecap:butt;stroke-linejoin:miter;stroke-opacity:1"
       d="m 5.3571429,1024.7729 c 0,0 -2.3299856,12.7992 1.8750001,25.625"
       id="path2989"
       inkscape:connector-curvature="0"
       sodipodi:nodetypes="cc" />
    <path
       style="fill:none;stroke:#000000;stroke-width:1.26257205px;stroke-linecap:butt;stroke-linejoin:miter;stroke-opacity:1"
       d="m 6.9170003,1049.4577 4.2017137,2.2374"
       id="path2997"
       inkscape:connector-curvature="0"
       sodipodi:nodetypes="cc" />
    <path
       style="fill:none;stroke:#000000;stroke-width:1px;stroke-linecap:butt;stroke-linejoin:miter;stroke-opacity:1"
       d="m 15.446429,1051.1122 c 0,0 -6.1607146,-11.9643 -2.678572,-23.75"
       id="path2999"
       inkscape:connector-curvature="0" />
    <path
       style="fill:none;stroke:#000000;stroke-width:1px;stroke-linecap:butt;stroke-linejoin:miter;stroke-opacity:1"
       d="m 20.354604,1049.7729 c 0,0 -6.160714,-11.9643 -2.678572,-23.75"
       id="path2999-8"
       inkscape:connector-curvature="0" />
    <path
       style="fill:#4d4d4d;fill-opacity:1;stroke:#000000;stroke-width:0.08928572;stroke-opacity:1"
       d="m 15.29908,1049.4315 c -1.467233,-3.5526 -2.36796,-6.9689 -2.84231,-10.7803 -0.192839,-1.5494 -0.218606,-5.1497 -0.04761,-6.6518 0.12963,-1.1387 0.476195,-3.0254 0.684708,-3.7275 l 0.135183,-0.4552 0.601248,-0.1331 c 1.699032,-0.3762 2.893444,-0.6092 2.930864,-0.5718 0.02304,0.023 -0.05629,0.5395 -0.176276,1.1478 -0.369006,1.8706 -0.45737,2.9807 -0.450485,5.6595 0.0052,2.0401 0.04248,2.771 0.202405,3.9732 0.490474,3.687 1.526475,7.5087 2.926183,10.7943 0.217489,0.5105 0.384566,0.9385 0.371282,0.951 -0.01328,0.013 -0.827724,0.1475 -1.809867,0.3 -0.982143,0.1525 -1.871322,0.2967 -1.975953,0.3204 -0.167527,0.038 -0.233116,-0.061 -0.549372,-0.8265 z"
       id="path3019"
       inkscape:connector-curvature="0" />
    <path
       style="fill:#4d4d4d;fill-opacity:1;stroke:#000000;stroke-width:0.08928572;stroke-opacity:1"
       d="m 8.4775859,1049.5192 -1.1325331,-0.6001 -0.2827117,-1.0673 c -0.7993667,-3.0179 -1.2890125,-5.889 -1.6223722,-9.5131 -0.1514846,-1.6468 -0.150583,-7.9605 0.00138,-9.6428 0.1333201,-1.476 0.3560998,-3.3153 0.4078125,-3.367 0.019145,-0.019 0.555903,0.6354 1.1927955,1.4545 l 1.1579864,1.4893 -0.2913968,0.9036 c -1.9504266,6.0476 -1.393581,13.501 1.5100063,20.2115 0.1752986,0.4052 0.2901147,0.7355 0.2551468,0.7341 -0.034968,-0 -0.5732176,-0.2726 -1.1961109,-0.6027 z"
       id="path3021"
       inkscape:connector-curvature="0" />
    <path
       style="fill:#4d4d4d;fill-opacity:1;stroke:#000000;stroke-width:0.08928572;stroke-opacity:1"
       d="m 8.1187763,1026.3582 -0.8547678,-1.0998 6.3845845,-1.0654 6.384585,-1.0653 0.610476,0.6635 c 0.335763,0.365 0.612226,0.6857 0.614363,0.7127 0.0021,0.027 -2.698121,0.6871 -6.000576,1.4669 -3.302456,0.7798 -6.067337,1.4335 -6.1441808,1.4526 -0.092851,0.023 -0.4264304,-0.3343 -0.9944839,-1.0652 l 0,0 z"
       id="path3023"
       inkscape:connector-curvature="0" />
    <path
       style="fill:#808080;fill-opacity:1;stroke:#000000;stroke-width:0.08928572;stroke-opacity:1"
       d="m 10.8926,1049.9682 c -1.3813891,-2.9469 -2.2081231,-5.6099 -2.7233579,-8.7723 -0.3106733,-1.9069 -0.3918939,-5.2589 -0.1719934,-7.0982 0.1927385,-1.6122 0.5043447,-3.1311 0.9076176,-4.4243 l 0.3216408,-1.0314 1.3479919,-0.2826 c 0.741395,-0.1555 1.361371,-0.2693 1.377725,-0.253 0.01635,0.016 -0.04865,0.3867 -0.144454,0.823 -0.873559,3.9782 -0.830528,8.6066 0.12359,13.2933 0.494549,2.4292 1.559517,5.8755 2.390062,7.7344 l 0.224438,0.5023 -1.485728,0.235 c -0.81715,0.1292 -1.537898,0.2346 -1.601663,0.2343 -0.06377,-4e-4 -0.318406,-0.4326 -0.565869,-0.9605 z"
       id="path3025"
       inkscape:connector-curvature="0" />
    <path
       style="fill:#808080;fill-opacity:1;stroke:#000000;stroke-width:0.08928572;stroke-opacity:1"
       d="m 20.495808,1048.7461 c -1.086586,-2.376 -2.226424,-6.0352 -2.716008,-8.7191 -0.811087,-4.4465 -0.807764,-8.5151 0.01,-12.224 0.10286,-0.4665 0.233085,-0.8928 0.28939,-0.9473 0.05631,-0.055 0.798169,-0.2413 1.648587,-0.415 1.332646,-0.2722 1.538267,-0.2955 1.488672,-0.1687 -0.117264,0.2997 -0.753779,3.0367 -0.927065,3.9864 -0.373912,2.049 -0.479491,3.2848 -0.430319,5.0368 0.0343,1.2223 0.09623,1.8825 0.235011,2.5056 0.499384,2.242 1.55386,5.4944 2.938876,9.0647 0.43815,1.1295 0.780819,2.0709 0.761487,2.0921 -0.01933,0.021 -0.695357,0.1442 -1.502279,0.2734 l -1.46713,0.2349 -0.329207,-0.7198 0,0 z"
       id="path3027"
       inkscape:connector-curvature="0" />
    <path
       style="fill:#ffcc00;stroke:#a27d1d;stroke-width:1px;stroke-linecap:butt;stroke-linejoin:miter;stroke-opacity:1"
       d="M 7.6785714,3.6607142 20.714286,0.89285707 21.428571,1.6071428 8.125,4.4642856 z"
       id="path3029"
       inkscape:connector-curvature="0"
       transform="translate(0,1022.3622)" />
  </g>
</svg>
