<?xml version="1.0" encoding="UTF-8" standalone="no"?>
<!-- Created with Inkscape (http://www.inkscape.org/) -->

<svg
   xmlns:dc="http://purl.org/dc/elements/1.1/"
   xmlns:cc="http://creativecommons.org/ns#"
   xmlns:rdf="http://www.w3.org/1999/02/22-rdf-syntax-ns#"
   xmlns:svg="http://www.w3.org/2000/svg"
   xmlns="http://www.w3.org/2000/svg"
   xmlns:sodipodi="http://sodipodi.sourceforge.net/DTD/sodipodi-0.dtd"
   xmlns:inkscape="http://www.inkscape.org/namespaces/inkscape"
   width="256"
   height="256"
   id="svg2"
   version="1.1"
   inkscape:version="0.48.4 r9939"
   sodipodi:docname="boss.svg"
   inkscape:export-filename="/home/chris/Class/soft/project/Four-to-the-Fifth/images/boss.png"
   inkscape:export-xdpi="90"
   inkscape:export-ydpi="90">
  <defs
     id="defs4" />
  <sodipodi:namedview
     id="base"
     pagecolor="#ffffff"
     bordercolor="#666666"
     borderopacity="1.0"
     inkscape:pageopacity="0.0"
     inkscape:pageshadow="2"
     inkscape:zoom="0.98994949"
     inkscape:cx="231.87716"
     inkscape:cy="201.52627"
     inkscape:document-units="px"
     inkscape:current-layer="layer1"
     showgrid="false"
     inkscape:window-width="1364"
     inkscape:window-height="743"
     inkscape:window-x="0"
     inkscape:window-y="0"
     inkscape:window-maximized="1" />
  <metadata
     id="metadata7">
    <rdf:RDF>
      <cc:Work
         rdf:about="">
        <dc:format>image/svg+xml</dc:format>
        <dc:type
           rdf:resource="http://purl.org/dc/dcmitype/StillImage" />
        <dc:title></dc:title>
      </cc:Work>
    </rdf:RDF>
  </metadata>
  <g
     inkscape:label="Layer 1"
     inkscape:groupmode="layer"
     id="layer1"
     transform="translate(0,-796.36218)">
    <path
       style="fill:none;stroke:#000000;stroke-width:2.10588527px;stroke-linecap:butt;stroke-linejoin:miter;stroke-opacity:1"
       d="m 49.599521,803.88045 c 11.664962,0 23.329931,0 34.994889,0 2.332998,0 4.665986,0 6.998983,0 0.933198,0 1.894259,0.26135 2.799592,0 1.012194,-0.29221 1.787387,-1.3242 2.799601,-1.6164 0.905323,-0.26136 1.866394,0 2.799581,0 2.332983,0 4.697733,0.4429 6.998983,0 1.45543,-0.28011 2.74394,-1.33629 4.19937,-1.6164 1.38076,-0.26573 2.79959,0 4.19941,0 1.86638,0 3.73277,0 5.59917,0 3.26619,0 6.53239,0 9.79857,0 1.3998,0 2.81366,0.22859 4.19939,0 1.90451,-0.31418 3.69468,-1.30223 5.59918,-1.6164 1.38573,-0.22858 2.79959,0 4.19939,0 3.26619,0 6.53238,0 9.79857,0 1.3998,0 2.82677,0.317 4.19939,0 1.02309,-0.23627 1.7874,-1.32419 2.7996,-1.6164 1.1011,-0.31787 6.94309,0 8.39876,0 0.99218,0 8.03687,0.20895 8.39878,0 0.59021,-0.34077 0.80958,-1.27564 1.39979,-1.6164 0.41734,-0.24095 0.93319,0 1.3998,0 0.46659,0 0.9332,0 1.39978,0 8.86538,0 17.73076,0 26.59613,0 2.79959,0 5.5992,0 8.39878,0 0.46659,0 0.9332,0 1.39979,0 0.4666,0 0.98247,-0.24095 1.3998,0 0.59021,0.34076 0.77379,1.37545 1.39979,1.6164 0.64025,0.24645 4.97632,-0.35963 5.59919,0 0.59021,0.34077 0.77378,1.37544 1.39978,1.6164 0.88533,0.34076 1.89427,-0.26135 2.7996,0 1.01221,0.2922 1.8098,1.23541 2.79961,1.6164 0.44263,0.17038 0.95712,-0.17038 1.39978,0 0.98981,0.38099 1.8098,1.23541 2.79959,1.6164 0.44266,0.17038 0.98246,-0.24096 1.3998,0 1.18042,0.68153 1.61918,2.55127 2.79959,3.23279 0.83468,0.48192 2.13971,-0.76198 2.79959,0 0.0565,0.0651 0,5.872 0,6.46561 0,5.9268 0,11.85359 0,17.78039 0,0.84526 -0.18401,6.04058 0,6.46561 0.29511,0.68152 1.10469,0.93486 1.3998,1.61639 0.55992,1.29312 -0.55992,3.55608 0,4.8492 0.2951,0.68153 1.10469,0.93487 1.39979,1.61639 0.41734,0.96384 -0.41734,2.26898 0,3.2328 0.29511,0.68154 1.10469,0.93487 1.3998,1.61641 0.41734,0.96382 -0.41733,2.26896 0,3.23279 0.29509,0.68153 1.10469,0.93487 1.39978,1.61641 0.55994,1.29311 -0.5599,3.55608 0,4.8492 0.29513,0.68154 1.10472,0.93488 1.39982,1.61641 0.213,0.49191 0,4.12123 0,4.84919 0,3.23278 0,6.4656 0,9.6984 0,2.69398 0,5.38799 0,8.082 0,0.53879 0,1.07759 0,1.61638 0,0.53881 0.20866,1.1345 0,1.61642 -0.2951,0.68153 -1.10469,0.93485 -1.39982,1.61639 -0.20864,0.48191 0.20868,1.13448 0,1.6164 -0.29509,0.68154 -1.10469,0.93486 -1.39978,1.61638 -0.20867,0.48192 0.20868,1.13449 0,1.61642 -0.29511,0.68153 -1.10469,0.93487 -1.3998,1.61641 -0.20867,0.48189 0.20867,1.13446 0,1.61639 -0.2951,0.68153 -1.10469,0.93486 -1.39979,1.6164 -0.41733,0.96382 0.41735,2.26896 0,3.2328 -0.29511,0.68153 -1.10469,0.93484 -1.3998,1.61638 -0.2775,0.64089 0.28618,4.51877 0,4.8492 -0.32994,0.381 -1.06987,-0.38099 -1.39979,0 -0.65987,0.76198 0.65986,2.47083 0,3.2328 -0.32993,0.38101 -1.06986,-0.38099 -1.3998,0 -0.32994,0.38101 0.32994,1.23543 0,1.61642 -0.383,0.44227 -4.83981,-0.43846 -5.59917,0 -0.59021,0.34076 -0.8096,1.27563 -1.39981,1.61639 -0.59783,0.34516 -6.44561,0 -6.99899,0 -4.66597,0 -9.33196,0 -13.99793,0 -0.9332,0 -1.86642,0 -2.79961,0 -0.9332,0 -1.89424,-0.26136 -2.79959,0 -1.0122,0.29221 -1.80977,1.23541 -2.79958,1.6164 -0.87859,0.33818 -4.47231,0 -5.59919,0 -3.73279,0 -7.46558,0 -11.19837,0 -1.45568,0 -7.29766,-0.31788 -8.39877,0 -1.01219,0.29221 -1.7765,1.3801 -2.79959,1.61641 -2.28768,0.52833 -4.66599,0 -6.99898,0 -0.9332,0 -1.89426,-0.26138 -2.79958,0 -1.0122,0.29219 -1.8098,1.2354 -2.79959,1.61639 -0.44267,0.1704 -0.9332,0 -1.39981,0 -1.86639,0 -3.73278,0 -5.59918,0 -0.93319,0 -1.88452,-0.21137 -2.79959,0 -1.44687,0.33415 -2.75253,1.28226 -4.19939,1.61641 -0.91507,0.21135 -1.86639,0 -2.79959,0 -1.86638,0 -3.73278,0 -5.59919,0 -5.13257,0 -10.26516,0 -15.39775,0 -4.66598,0 -9.33196,0 -13.99797,0 -0.96314,0 -7.5837,0.31372 -8.39876,0 -0.98981,-0.381 -1.7874,-1.3242 -2.79959,-1.61641 -0.90532,-0.26135 -1.8664,0 -2.799593,0 -1.399801,0 -2.799581,0 -4.199392,0 -6.532379,0 -13.064759,0 -19.597138,0 -6.53238,0 -13.06476,0 -19.597139,0 -2.332988,0 -4.665985,0 -6.998977,0 -0.933198,0 -1.914284,-0.34076 -2.799592,0 -0.989805,0.38099 -1.787398,1.32419 -2.799592,1.61641 -1.840471,0.53132 -5.260505,-0.66915 -6.998979,0 -0.626007,0.24096 -0.809589,1.27563 -1.399796,1.61638 -0.426005,0.24596 -3.568979,0 -4.199387,0 -2.79959,0 -5.599184,0 -8.398774,0 -1.23414,0 -3.006662,-0.34431 -4.199387,0 -1.431459,0.41324 -2.767929,1.20317 -4.199387,1.61641 -1.192726,0.34431 -2.965248,0 -4.199388,0 -0.466599,0 -1.0698594,-0.38099 -1.399795,0 -0.3299356,0.38099 0.3299356,1.23541 0,1.61639 -0.3299356,0.38099 -1.0698611,0.38099 -1.3997967,0 -0.3299356,-0.38098 0,-1.07761 0,-1.61639 0,-0.53881 0,-1.0776 0,-1.61641 0,-1.72789 0.303178,-9.56433 0,-11.3148 -0.2893705,-1.67075 -1.0419308,-3.19623 -1.3997956,-4.84918 -0.3293637,-1.52132 0.3293647,-3.32788 0,-4.8492 -0.253048,-1.16882 -1.1467466,-2.06398 -1.3997946,-3.2328 -0.2263347,-1.04544 0,-2.15519 0,-3.23279 0,-1.07761 0,-2.15523 0,-3.23283 0,-4.31038 0,-8.62078 0,-12.93118 0,-3.23279 0,-6.46559 0,-9.69841 0,-0.53878 0,-1.0776 0,-1.61638 0,-0.53882 0.2086681,-1.1345 0,-1.6164 -0.2951031,-0.68154 -1.1046925,-0.93486 -1.3997966,-1.6164 -0.2531068,-0.58455 0,-6.95773 0,-8.08201 0,-6.46559 0,-12.93119 0,-19.39678 0,-4.3104 0,-8.6208 0,-12.9312 0,-0.53881 -0.3299356,-1.23541 0,-1.61641 0.3299356,-0.38098 1.069861,0.381 1.3997966,0 0.045012,-0.052 0,-4.45718 0,-4.84919 0,-1.6164 0,-3.2328 0,-4.8492 0,-0.5388 -0.4666006,-1.61639 0,-1.61639 0.965408,0 -1.6952305,5.36091 1.3997946,0 0.5787442,-1.00247 0.8210514,-2.23036 1.3997956,-3.2328 0.3660304,-0.63402 0.9331981,-1.0776 1.3997967,-1.61642 0.4665985,-0.53879 0.8095893,-1.27563 1.399795,-1.61639 0.368065,-0.21252 4.867202,0 5.599183,0 0.630409,0 3.773382,-0.24597 4.199387,0 0.590206,0.34076 0.80959,1.27563 1.399795,1.61639 1.119838,0.64658 3.079552,-0.64655 4.199387,0 0.590208,0.34077 0.809592,1.27564 1.399797,1.61642 0.417339,0.24095 0.982457,-0.24097 1.399797,0 0.590205,0.34076 0.809589,1.27563 1.399793,1.61639 0.834678,0.48191 1.964916,-0.48192 2.799593,0 0.590206,0.34077 0.80959,1.27563 1.399796,1.61641 0.879803,0.50795 4.71938,-0.50799 5.599184,0 0.590205,0.34076 0.809589,1.27563 1.399794,1.61639 1.119838,0.64655 3.079552,-0.64656 4.199387,0 0.590207,0.34076 0.809591,1.27563 1.399797,1.6164 0.156227,0.0902 6.842736,0.0902 6.998978,0 1.679752,-0.96985 2.519629,-3.87937 4.199392,-4.8492 1.930809,-1.1148 1.25207,1.95755 2.799591,-1.61639 0.208663,-0.48193 -0.208673,-1.1345 0,-1.61642 2.9128,-6.72706 -0.09666,1.72799 2.799591,-1.61639 2.89622,-3.34439 -4.42582,0.13073 1.399791,-3.2328 0.417336,-0.24096 0.982454,0.24096 1.3998,0 0.5902,-0.34077 0.809591,-1.27564 1.399791,-1.6164 0.417336,-0.24096 0.982464,0.24097 1.399801,0 3.459452,-1.99739 -0.483185,-1.6164 2.799591,-1.6164"
       id="path2989"
       inkscape:connector-curvature="0" />
    <path
       style="fill:none;stroke:#000000;stroke-width:2.10588527px;stroke-linecap:butt;stroke-linejoin:miter;stroke-opacity:1"
       d="m 85.994211,818.42804 c -0.466604,2.1552 -0.933197,4.3104 -1.399801,6.4656 0,1.0776 0.183025,2.17613 0,3.2328 -0.28937,1.67075 -1.041923,3.19625 -1.39979,4.84921 -0.113178,0.5227 0,1.07759 0,1.61639 0,1.07759 0,2.1552 0,3.2328 0,2.15519 0,4.3104 0,6.46559 0,0.72796 -0.213002,4.35729 0,4.84921 0.2951,0.68154 1.10469,0.93486 1.39979,1.61639 0.417336,0.96384 -0.417336,2.26897 0,3.23281 0.295111,0.68153 1.104691,0.93485 1.399801,1.61639 0.277499,0.64089 -0.286176,4.51875 0,4.84922 0.32993,0.38097 1.06986,-0.38099 1.39979,0 0.286176,0.33044 -0.277499,4.20828 0,4.84919 0.295111,0.68152 1.104701,0.93486 1.399801,1.6164 0.559914,1.29312 -0.559924,3.55608 0,4.8492 0.2951,0.68152 1.104691,0.93486 1.399791,1.61638 0.09563,0.22087 0.09563,9.47764 0,9.69842 -0.2951,0.6815 -1.104691,0.93484 -1.399791,1.61638 -0.208673,0.48192 0.208663,1.1345 0,1.61642 -0.59021,1.36307 -2.209391,1.86973 -2.799591,3.23279 -0.417336,0.96384 0.417336,2.26896 0,3.2328 -0.29511,0.68153 -1.10469,0.93487 -1.399801,1.61641 -0.03658,0.0846 -0.03658,4.7646 0,4.84917 0.295111,0.68154 0.809591,1.27563 1.399801,1.61642 0.834672,0.48192 2.13972,-0.76199 2.799591,0 0.329931,0.38098 -0.329941,1.23541 0,1.61638 0.659871,0.76198 2.13972,-0.76195 2.799591,0 0.329931,0.381 -0.32994,1.23542 0,1.61641 0.329931,0.38099 0.933198,0 1.399791,0 0.466604,0 0.933197,0 1.399801,0 0.992182,0 8.036855,-0.20887 8.398775,0 0.59021,0.34076 0.8096,1.27563 1.39979,1.61641 0.36807,0.2125 4.8672,0 5.59919,0 3.73279,0 7.46557,0 11.19836,0 9.79857,0 19.59714,0 29.39571,0 0.97362,0 6.49277,-0.29227 6.99898,0 0.5902,0.34075 0.80959,1.27563 1.3998,1.61638 0.41734,0.24097 0.9332,0 1.39978,0 0.46662,0 0.9332,0 1.39982,0 2.33297,0 4.66597,0 6.99898,0 0.46658,0 0.93319,0 1.39978,0 0.4666,0 0.98246,-0.24096 1.3998,0 0.59021,0.34078 0.8096,1.27563 1.39979,1.61641 0.42602,0.24597 3.56899,0 4.19939,0 0.46661,0 1.06986,0.38099 1.3998,0 0.32994,-0.38099 -0.32994,-1.23541 0,-1.61641 0.32994,-0.38099 0.98245,0.24097 1.39979,0 0.5902,-0.34075 0.93319,-1.07759 1.3998,-1.61638 0.46659,-0.53881 1.10469,-0.93487 1.39978,-1.61641 0.25312,-0.58453 0,-6.95771 0,-8.08199 0,-0.84524 0.18403,-6.04058 0,-6.4656 -4.64252,-5.36092 0.65989,1.52395 -1.39978,-3.23279 -0.29511,-0.68153 -1.10469,-0.93487 -1.3998,-1.61642 -0.44155,-1.01973 0.44155,-7.06226 0,-8.082 -0.2951,-0.68154 -1.10469,-0.93485 -1.39979,-1.61638 -0.41733,-0.96384 0.41735,-2.26898 0,-3.2328 -0.29511,-0.68154 -1.10469,-0.93488 -1.3998,-1.6164 -0.55991,-1.29313 0.55993,-3.55608 0,-4.8492 -0.74879,-1.72933 -2.0508,-1.5035 -2.79959,-3.2328 -0.41734,-0.96385 0.41734,-2.26896 0,-3.2328 -0.29509,-0.68155 -1.10469,-0.93489 -1.3998,-1.61642 -0.18402,-0.425 0,-5.62033 0,-6.46559 0,-5.92679 0,-11.8536 0,-17.78038 0,-5.92681 0,-11.8536 0,-17.7804 0,-0.53881 0,-1.07761 0,-1.6164 0,-0.53881 0.41734,-1.37544 0,-1.6164 -1.25201,-0.72288 -2.79959,0 -4.19937,0 -0.46662,0 -0.9332,0 -1.39981,0 -0.46659,0 -0.98247,-0.24096 -1.39978,0 -0.59021,0.34076 -0.8096,1.27563 -1.39981,1.6164 -1.11984,0.64655 -3.07956,-0.64657 -4.1994,0 -0.5902,0.34077 -0.80957,1.27563 -1.39978,1.6164 -0.41733,0.24096 -0.93319,0 -1.3998,0 -2.33298,0 -4.66598,0 -6.99898,0 -0.46659,0 -0.9332,0 -1.39979,0 -0.4666,0 -0.98246,-0.24095 -1.3998,0 -0.59021,0.34076 -0.80958,1.27563 -1.39978,1.6164 -0.31375,0.18114 -5.26656,0 -5.5992,0 -5.13257,0 -10.26516,0 -15.39775,0 -3.16247,0 0.62601,-0.24096 -4.19939,1.61639 -0.44265,0.17037 -0.9332,0 -1.39978,0 -0.9332,0 -1.8664,0 -2.79959,0 -2.333,0 -4.66601,0 -6.99899,0 -7.93218,0 -15.864359,0 -23.796529,0 z"
       id="path2991"
       inkscape:connector-curvature="0" />
    <path
       style="fill:none;stroke:#000000;stroke-width:2.10588527px;stroke-linecap:butt;stroke-linejoin:miter;stroke-opacity:1"
       d="m 104.19155,883.08404 c 1.34779,-4.81918 4.91229,1.20477 6.99897,0 0.59021,-0.34079 0.8096,-1.27565 1.39981,-1.61642 0.41734,-0.24096 0.9332,0 1.39978,0 0.46662,0 0.9332,0 1.39982,0 0.4666,0 0.93318,0 1.3998,0 0.46658,0 0.98244,0.24097 1.39978,0 0.59021,-0.34075 0.8096,-1.27563 1.39981,-1.6164 0.75936,-0.43842 5.21617,0.44229 5.59917,0 0.32994,-0.38097 -0.32994,-1.2354 0,-1.61639 0.38301,-0.44229 4.83981,0.43843 5.59918,0 0.36444,-0.21046 1.70534,-2.87997 2.79958,-1.61641 0.32994,0.381 0,1.0776 0,1.61641 0,0.5388 0,1.0776 0,1.61639 0,2.69401 0,5.38801 0,8.08201 0,0.5388 0.32994,1.23541 0,1.6164 -1.86638,2.1552 -1.39978,-2.694 -1.39978,1.61638 0,0.53882 0,1.0776 0,1.61642 0,0.5388 0.32994,1.23541 0,1.61641 -0.32994,0.38097 -0.93319,0 -1.3998,0 -0.46659,0 -0.9332,0 -1.39979,0 -1.40968,0 -7.62465,-0.298 -8.39878,0 -0.62601,0.24093 -0.80958,1.27562 -1.39978,1.61639 -0.36193,0.20887 -7.4066,0 -8.3988,0 -0.46658,0 -0.98244,-0.24096 -1.39978,0 -0.59021,0.34077 -0.8096,1.27563 -1.3998,1.6164 -0.41734,0.24096 -0.9332,0 -1.39979,0 -0.4666,0 -0.98246,0.24096 -1.3998,0 -3.09502,-1.78699 -0.43439,-1.00321 -1.3998,-3.23279 -0.2951,-0.68154 -1.10469,-0.93488 -1.39979,-1.61641 -0.66748,-1.54153 1.30647,-9.26734 1.39979,-9.69839 z"
       id="path2993"
       inkscape:connector-curvature="0" />
    <path
       style="fill:none;stroke:#000000;stroke-width:2.10588527px;stroke-linecap:butt;stroke-linejoin:miter;stroke-opacity:1"
       d="m 143.38583,878.23483 c 1.86641,-1.07758 3.66174,-2.3379 5.59919,-3.23279 1.17091,-0.54085 3.07616,0.64852 4.19938,0 0.5902,-0.34079 0.80959,-1.27563 1.3998,-1.61642 0.41734,-0.24094 0.9332,0 1.3998,0 0.4666,0 0.9332,0 1.39979,0 0.46661,0 0.9332,0 1.3998,0 0.46659,0 1.39978,-0.53878 1.39978,0 0,0.53882 -1.86638,0 -1.39978,0 0.9332,0 1.8664,0 2.7996,0 0.33948,0 4.15436,-0.052 4.19939,0 0.32992,0.381 0,1.07761 0,1.61642 0,4.31039 0,8.62079 0,12.93119 0,0.76213 0.0635,8.00874 0,8.082 -0.0565,0.0652 -5.08515,0 -5.59921,0 -4.50586,0 2.38961,-0.381 -2.79958,1.6164 -1.09434,0.42123 -7.62846,-0.44476 -8.39877,0 -0.5902,0.34075 -0.80959,1.27563 -1.3998,1.61638 -0.50622,0.29229 -6.02536,0 -6.99898,0 -0.46659,0 -1.06985,0.381 -1.39978,0 -0.32995,-0.38098 0,-1.0776 0,-1.61638 0,-0.53881 -0.20868,-1.13448 0,-1.6164 0.29509,-0.68154 1.10469,-0.93488 1.39978,-1.61639 0.41669,-0.96238 -0.39285,-6.72111 0,-8.082 0.79458,-2.75264 1.86639,-5.38802 2.79959,-8.08201 z"
       id="path2995"
       inkscape:connector-curvature="0" />
    <path
       style="fill:none;stroke:#000000;stroke-width:2.10588527px;stroke-linecap:butt;stroke-linejoin:miter;stroke-opacity:1"
       d="m 16.004422,920.26123 c 1.399796,2.15519 2.799592,4.3104 4.199387,6.46559 0,0.5388 -0.147547,1.10525 0,1.61641 0.329935,1.14295 1.06986,2.08982 1.399795,3.23279 0.147547,0.51114 -0.208668,1.13448 0,1.61638 0.590208,1.36307 2.209386,1.86975 2.799594,3.2328 0.208668,0.48192 0,1.07761 0,1.61642 0.466597,1.07759 0.821051,2.23034 1.399793,3.2328 0.366032,0.63401 1.191129,0.89352 1.399797,1.6164 0.295103,1.02229 -0.295103,2.21048 0,3.2328 0.208668,0.72288 1.104692,0.93485 1.399797,1.61638 0.208668,0.48193 0,1.0776 0,1.61641 0,1.07761 -0.295105,2.21048 0,3.23276 0.208668,0.72289 1.191125,0.89352 1.399793,1.61641 0.442655,1.53348 0,3.23283 0,4.84925 0,7.00436 0,14.00871 0,21.01319 0,3.23283 0,6.46555 0,9.69839 0,0.5388 0,1.0776 0,1.61642 0,0.5388 0.208671,1.13448 0,1.61641 -0.295101,0.68148 -1.104692,0.93482 -1.399793,1.61642 -0.559921,1.29311 0.559917,3.55602 0,4.84913 -0.295105,0.68161 -1.104694,0.93481 -1.399797,1.61641 -0.559917,1.2931 0.559918,3.556 0,4.8491 -0.295103,0.6816 -1.104693,0.935 -1.399797,1.6165 -0.441542,1.0197 0.441546,7.0623 0,8.0819 -0.295101,0.6816 -1.104692,0.935 -1.399793,1.6164 -0.559921,1.2933 0.559917,3.5562 0,4.8493 -0.295104,0.6815 -1.104694,0.9348 -1.399797,1.6164 -0.417339,0.9639 0.417338,2.269 0,3.2327 -0.295103,0.6816 -1.104692,0.935 -1.399797,1.6164 -0.417338,0.9639 0.41734,2.269 0,3.2329 -0.295101,0.6815 -1.104692,0.9349 -1.399795,1.6164 -0.253106,0.5845 0,6.9577 0,8.0819 0,0.7623 -0.06344,8.0088 0,8.082 0.197408,0.228 3.912249,0.1659 4.199389,0 0.590205,-0.3406 0.809588,-1.2756 1.399793,-1.6162 0.41734,-0.241 0.933198,0 1.399797,0 2.332993,0 4.665985,0 6.998979,0 0.466599,0 0.933197,0 1.399795,0 0.4666,0 0.982457,0.241 1.399796,0 0.590206,-0.3408 0.80959,-1.2757 1.399797,-1.6164 0.426004,-0.246 3.568978,0 4.199387,0 2.79959,0 5.599182,0 8.398773,0 0.63041,0 3.77338,0.2459 4.199382,0 0.590211,-0.3409 0.809601,-1.2757 1.399801,-1.6165 0.417336,-0.2409 0.933197,0 1.399801,0 2.332987,0 4.665985,0 6.998973,0 0.466603,0 0.933197,0 1.3998,0 0.466594,0 0.982455,0.2409 1.399791,0 0.59021,-0.3408 0.80959,-1.2756 1.399801,-1.6164 0.417336,-0.2409 0.933197,0 1.39979,0 0.466604,0 0.933197,0 1.399801,0 0.466593,0 1.39979,-0.5388 1.39979,0 0,0.5388 -1.39979,0.5388 -1.39979,0 0,-0.7621 0.933197,-1.0777 1.39979,-1.6165 -0.466593,-0.5388 -1.239756,-0.877 -1.39979,-1.6164 -0.299336,-1.3825 0,-9.2513 0,-11.3148 0,-4.3103 0,-8.6207 0,-12.9312 0,-1.6163 0.442655,-3.3156 0,-4.8491 -0.208673,-0.7229 -1.191128,-0.8935 -1.399801,-1.6164 -0.442655,-1.5335 0,-3.2329 0,-4.8492 0,-0.5388 0,-1.0776 0,-1.6164 0,-0.5388 0.208673,-1.1345 0,-1.6164 -0.2951,-0.6816 -1.10469,-0.9348 -1.39979,-1.61641 -0.208674,-0.48193 0,-1.07761 0,-1.61641 0,-0.53882 0,-1.07762 0,-1.61642 0,-2.69391 0,-5.38795 0,-8.08198 0,-0.5388 0,-1.0776 0,-1.61641 0,-0.5388 0.208663,-1.13449 0,-1.61642 -0.295111,-0.68148 -1.104701,-0.93482 -1.399801,-1.6163 -0.208673,-0.48192 0,-1.0776 0,-1.61641 0,-1.1458 0.180963,-9.28047 0,-9.69839 -0.2951,-0.68159 -1.104691,-0.93493 -1.399791,-1.61641 -0.184044,-0.42505 0,-5.62034 0,-6.46568 0,-1.12425 -0.253107,-7.49746 0,-8.08196 0.2951,-0.68148 1.104691,-0.93482 1.399791,-1.61642 0.483442,-1.11652 -0.491356,-7.51458 0,-8.08196 0.329941,-0.381 1.06986,0.38099 1.399801,0 0.32993,-0.381 0,-1.07761 0,-1.61641 0,-0.5388 0,-1.0776 0,-1.61639 0,-5.38801 0,-10.77601 0,-16.164 0,-1.0776 0,-2.15519 0,-3.2328 0,-0.53881 -0.466604,-1.61641 0,-1.61641 0.466593,0 0.32993,1.9974 0,1.61641 -0.737756,-0.85192 -1.06986,-2.08984 -1.399801,-3.23279 -0.2951,-1.02232 0.659871,-2.47083 0,-3.2328 -0.329931,-0.38098 -1.06986,0.38097 -1.399791,0 -0.32994,-0.38098 0.208663,-1.1345 0,-1.61641 -0.864865,-1.99737 -1.351481,-1.6164 -2.799591,-1.6164"
       id="path2997"
       inkscape:connector-curvature="0" />
    <path
       style="fill:none;stroke:#000000;stroke-width:2.10588527px;stroke-linecap:butt;stroke-linejoin:miter;stroke-opacity:1"
       d="m 167.18236,918.64482 c 1.71216,4.8593 1.39981,9.51651 1.39981,14.54758 0,0.53882 -0.32994,1.23543 0,1.61641 0.32993,0.38099 1.06984,-0.38098 1.39978,0 0.32994,0.38099 0,1.0776 0,1.61639 0,3.77161 0,7.54321 0,11.3148 0,1.14572 -0.18088,9.28051 0,9.69841 0.29511,0.68149 1.10469,0.93482 1.3998,1.61642 0.20867,0.48193 0,1.07761 0,1.61643 0,0.5388 0,1.0776 0,1.61641 0,3.77152 0,7.54316 0,11.3148 0,0.72789 -0.213,4.35721 0,4.84913 0.2951,0.68148 1.10469,0.93482 1.39979,1.61642 0.21302,0.49192 0,4.12124 0,4.84913 0,3.23283 0,6.46568 0,9.69851 0,3.77152 0,7.54314 0,11.31464 0,0.728 0.21302,4.3574 0,4.8493 -0.2951,0.6816 -1.10469,0.9348 -1.39979,1.6164 -0.44154,1.0197 0.44154,7.0622 0,8.082 -0.29511,0.6816 -1.10469,0.9349 -1.3998,1.6164 -0.43989,1.016 0.43991,5.4497 0,6.4655 -0.29509,0.6816 -1.10469,0.935 -1.39978,1.6165 -0.43991,1.0159 0.43989,5.4497 0,6.4656 -1.72974,3.9948 -1.39981,-0.5579 -1.39981,3.2327 0,0.5388 0,1.0776 0,1.6164 0,0.5388 -0.32993,1.2355 0,1.6165 0.1974,0.228 3.91226,0.1659 4.19939,0 0.59021,-0.3408 0.8096,-1.2756 1.39979,-1.6165 0.42602,-0.2459 3.56899,0 4.19939,0 0.97363,0 6.49277,0.2923 6.99899,0 0.5902,-0.3407 0.80959,-1.2755 1.3998,-1.6164 0.41731,-0.2409 0.93319,0 1.39978,0 0.46661,0 0.93319,0 1.39981,0 2.33297,0 4.66597,0 6.99898,0 0.46658,0 0.93319,0 1.39978,0 0.4666,0 0.98247,0.241 1.3998,0 0.59021,-0.3406 0.80958,-1.2756 1.39979,-1.6164 0.426,-0.2459 3.56899,0 4.19939,0 4.66598,0 9.33196,0 13.99796,0 0.73197,0 5.2311,0.2126 5.59918,0 3.20398,-1.8499 2.79959,-7.8733 2.79959,-11.3148 0,-1.0775 -0.2951,-2.2104 0,-3.2327 0.32993,-1.1429 1.06986,-2.0899 1.3998,-3.2328 0.27823,-0.9639 0,-8.1323 0,-9.6984 0,-7.0044 0,-14.00884 0,-21.01319 0,-3.77164 0,-7.54316 0,-11.31481 0,-0.728 0.21301,-4.35721 0,-4.84913 -0.29511,-0.6816 -1.10469,-0.93493 -1.3998,-1.61642 -0.213,-0.49191 0,-4.12124 0,-4.84924 0,-3.23285 0,-6.46555 0,-9.6984 0,-0.728 0.213,-4.35732 0,-4.84924 -0.2951,-0.68149 -1.10469,-0.93482 -1.39979,-1.6163 -0.213,-0.49199 0,-4.1213 0,-4.84925 0,-3.77161 0,-7.54319 0,-11.31481 0,-0.72797 0.213,-4.35728 0,-4.8492 -0.29511,-0.68153 -1.10471,-0.93487 -1.3998,-1.61638 -0.18401,-0.42504 0,-5.62036 0,-6.46562 0,-2.69399 0,-5.38799 0,-8.08199 0,-0.5388 0.32994,-1.2354 0,-1.61639 -0.32994,-0.38099 -1.06987,0.38099 -1.3998,0 -0.32992,-0.38099 0.32993,-1.23541 0,-1.61642 -0.32992,-0.38099 -1.06985,0.38101 -1.39979,0 -0.32993,-0.38099 -0.4666,-1.61639 0,-1.61639 0.65988,0 0.9332,1.0776 1.39979,1.61639"
       id="path2999"
       inkscape:connector-curvature="0" />
    <path
       style="fill:#008000;fill-opacity:1;stroke:#000000;stroke-width:1.50420392;stroke-opacity:1"
       d="m 22.200992,1042.5845 c 0,-3.1679 1.195647,-10.6007 2.656996,-16.5174 6.058539,-24.5296 7.463246,-36.06592 6.921643,-56.84528 -0.508365,-19.50418 -0.70212,-20.5933 -5.747557,-32.30762 l -5.221456,-12.12299 9.443912,-1.09865 c 5.194149,-0.60428 15.585513,-1.61927 23.091922,-2.25557 l 13.648003,-1.15687 0,10.20516 c 0,5.61281 -0.688715,14.77196 -1.530466,20.35372 -1.225845,8.1285 -1.044552,14.75028 0.910835,33.26852 1.342722,12.71607 2.81881,30.92278 3.28021,40.45938 l 0.838907,17.3392 -3.499486,0.8199 c -1.92472,0.4509 -12.003246,1.5905 -22.396732,2.5323 -10.393483,0.9417 -19.684628,2.0213 -20.646987,2.3991 -1.183731,0.4647 -1.749744,-1.1763 -1.749744,-5.0729 z"
       id="path3001"
       inkscape:connector-curvature="0" />
    <path
       style="fill:#008000;fill-opacity:1;stroke:#000000;stroke-width:1.50420392;stroke-opacity:1"
       d="m 169.79477,1038.8613 c 2.21079,-8.7095 4.98098,-31.1967 4.96431,-40.29837 -0.0239,-13.10554 -3.83682,-70.81196 -4.99744,-75.63483 -0.92093,-3.82687 -1.82114,-3.6728 36.86243,-6.30856 13.27234,-0.90434 14.35017,-0.75585 14.37793,1.98063 0.0157,1.62705 0.94353,16.05109 2.06003,32.05343 2.11843,30.36233 2.52187,63.7717 0.93687,77.5872 l -0.92722,8.0819 -16.79755,1.1051 c -9.23865,0.6079 -21.37094,1.7503 -26.96065,2.5387 -8.93874,1.2608 -10.08545,1.1276 -9.51871,-1.1052 z"
       id="path3003"
       inkscape:connector-curvature="0" />
    <path
       style="fill:#008000;fill-opacity:1;stroke:#000000;stroke-width:1.50420392;stroke-opacity:1"
       d="m 173.00095,906.84376 c -0.46451,-0.53642 -18.11301,-1.52228 -39.21886,-2.19085 -33.70826,-1.06777 -38.910115,-1.58108 -42.781153,-4.22159 -4.656608,-3.17637 -4.813036,-5.94661 -0.721299,-12.77284 2.771974,-4.6245 2.366736,-11.60677 -1.588348,-27.36686 -3.642333,-14.51382 -4.082144,-19.85067 -2.638321,-32.01447 l 0.861156,-7.25509 28.884495,-1.12929 c 27.75994,-1.0853 42.71955,-2.56026 50.93128,-5.02158 l 3.84945,-1.1538 0.008,21.59253 c 0.006,15.11609 0.58345,22.86464 1.92509,25.83375 1.05405,2.33268 2.69211,8.15173 3.64014,12.93122 0.94802,4.77944 2.1726,9.78102 2.72128,11.11454 0.54868,1.33354 1.15569,6.19038 1.34889,10.79303 0.29233,6.96414 -0.11954,8.65944 -2.45465,10.1025 -3.25421,2.0111 -3.63132,2.07111 -4.76777,0.7588 l 0,0 z m -16.76951,-7.34961 11.54832,-1.86342 0,-12.91956 0,-12.91955 -10.37075,0.90571 c -5.70392,0.49814 -11.6376,1.68862 -13.18595,2.64548 -2.98431,1.84432 -5.05512,7.88278 -6.5641,19.14091 -0.90042,6.71766 -0.83288,6.86975 3.05168,6.87176 2.18486,0.001 9.16923,-0.83648 15.5208,-1.86133 z m -32.30877,-2.35446 c 11.17478,-1.19746 11.60615,-1.74151 11.64266,-14.68355 0.02,-7.09463 -1.73678,-9.90538 -4.59153,-7.34624 -2.57136,2.30513 -18.57987,5.74098 -22.60685,4.85205 -1.95813,-0.43225 -4.10961,0.0226 -4.78108,1.00849 -2.03645,2.99319 -2.79292,11.0919 -1.42429,15.24865 1.13922,3.46007 1.9021,3.80676 6.50826,2.95772 2.86977,-0.52901 9.73355,-1.4457 15.25283,-2.03712 l 0,0 z"
       id="path3005"
       inkscape:connector-curvature="0" />
    <path
       style="fill:#552200;fill-opacity:1;stroke:#000000;stroke-width:1.50420392;stroke-opacity:1"
       d="M 9.1075238,913.88052 C 4.9070591,867.31578 4.7896271,817.0491 8.8645323,809.86767 c 2.5916777,-4.56746 8.1833727,-5.0262 16.8359487,-1.38121 7.280522,3.06699 22.414796,7.1978 26.371023,7.1978 1.705361,0 5.079447,-2.08702 7.497965,-4.63781 4.280749,-4.51487 4.910468,-4.66288 23.758537,-5.58431 20.328674,-0.99382 47.982164,-2.89816 88.244814,-6.07695 37.13696,-2.93203 61.78214,-0.45939 70.04616,7.02766 1.14371,1.0362 1.74963,6.13538 1.74941,14.72262 -2.1e-4,9.37726 1.03182,17.18846 3.60581,27.29137 4.83506,18.9776 4.30825,34.294 -1.73567,50.46255 -4.42181,11.82916 -6.04465,13.27347 -15.30085,13.61771 -2.67491,0.0995 -5.29027,-1.0611 -6.83614,-3.03355 -2.6316,-3.35786 -5.61828,-2.82692 -4.41785,0.78537 0.53978,1.62435 -2.75552,2.33164 -14.25248,3.05905 -8.22505,0.52041 -25.8598,2.12268 -39.18834,3.56061 -29.82902,3.21808 -94.198145,1.90206 -96.990347,-1.98297 -2.137175,-2.97359 -5.981431,-2.9028 -4.986281,0.0919 0.780356,2.34826 -5.367643,3.11618 -37.923744,4.73693 -5.586106,0.2781 -10.572879,0.98638 -11.081719,1.57395 -2.632962,3.0404 -4.4451655,0.43184 -5.1532552,-7.41778 z M 182.01744,908.3767 c 2.81048,-2.93703 3.54996,-15.22643 1.31769,-21.89893 -0.68318,-2.04211 -2.02156,-7.62344 -2.97419,-12.40288 -0.95261,-4.77949 -2.59444,-10.59854 -3.64851,-12.93122 -1.35977,-3.00926 -1.91895,-10.94665 -1.92508,-27.32565 -0.008,-18.15181 -0.42222,-23.2677 -1.94424,-23.94214 -1.06459,-0.47172 -5.31647,0.26875 -9.44862,1.6455 -7.9773,2.6579 -43.35609,5.764 -65.761227,5.77354 l -13.454767,0.006 -1.593048,9.15979 c -2.142152,12.31714 -2.009734,18.05396 0.672866,29.15084 5.433913,22.47802 5.535323,24.02144 2.100283,31.96374 -3.757798,8.68856 -3.504134,11.56165 1.393155,15.7796 3.335711,2.87297 7.216518,3.26788 43.842748,4.46148 22.10069,0.72021 40.55842,1.74288 41.01716,2.27259 1.66696,1.92493 7.90816,0.8981 10.40578,-1.71197 l 0,0 z"
       id="path3007"
       inkscape:connector-curvature="0" />
    <path
       style="fill:#d40000;fill-opacity:1;stroke:#000000;stroke-width:1.50420392;stroke-opacity:1"
       d="m 105.28614,892.10611 c -1.04495,-4.80765 0.30893,-8.69469 2.66481,-7.65076 1.02751,0.4553 6.49946,-0.29714 12.15993,-1.6721 5.66043,-1.37496 10.49333,-2.26708 10.7398,-1.98249 0.24645,0.28459 0.0854,3.09814 -0.35785,6.25235 l -0.80593,5.73494 -11.80081,1.49737 c -11.60232,1.47216 -11.81426,1.4355 -12.59995,-2.17931 z"
       id="path3009"
       inkscape:connector-curvature="0" />
    <path
       style="fill:#d40000;fill-opacity:1;stroke:#000000;stroke-width:1.50420392;stroke-opacity:1"
       d="m 142.5734,890.12884 c 1.08187,-9.73799 2.10689,-11.18473 9.28751,-13.10849 11.22324,-3.00684 11.71946,-2.66873 11.71946,7.98556 l 0,9.51485 -6.64904,1.07332 c -3.65697,0.59032 -8.58972,1.4582 -10.9617,1.92857 l -4.31266,0.85522 0.91643,-8.24903 0,0 z"
       id="path3011"
       inkscape:connector-curvature="0" />
    <text
       xml:space="preserve"
       style="font-size:18.9529686px;font-style:normal;font-weight:normal;line-height:125%;letter-spacing:0px;word-spacing:0px;fill:#000000;fill-opacity:1;stroke:none;font-family:Sans"
       x="13.813707"
       y="848.11194"
       id="text3013"
       sodipodi:linespacing="125%"
       transform="scale(0.93058912,1.0745881)"><tspan
         sodipodi:role="line"
         id="tspan3015"
         x="13.813707"
         y="848.11194"
         style="font-size:8.42354107px">im the boss</tspan></text>
  </g>
</svg>
