<?xml version="1.0" encoding="UTF-8" standalone="no"?>
<!-- Created with Inkscape (http://www.inkscape.org/) -->

<svg
   xmlns:dc="http://purl.org/dc/elements/1.1/"
   xmlns:cc="http://creativecommons.org/ns#"
   xmlns:rdf="http://www.w3.org/1999/02/22-rdf-syntax-ns#"
   xmlns:svg="http://www.w3.org/2000/svg"
   xmlns="http://www.w3.org/2000/svg"
   xmlns:sodipodi="http://sodipodi.sourceforge.net/DTD/sodipodi-0.dtd"
   xmlns:inkscape="http://www.inkscape.org/namespaces/inkscape"
   width="744.09448819"
   height="1052.3622047"
   id="svg2"
   version="1.1"
   inkscape:version="0.48.4 r9939"
   sodipodi:docname="ground.svg">
  <defs
     id="defs4" />
  <sodipodi:namedview
     id="base"
     pagecolor="#ffffff"
     bordercolor="#666666"
     borderopacity="1.0"
     inkscape:pageopacity="0.0"
     inkscape:pageshadow="2"
     inkscape:zoom="0.35"
     inkscape:cx="-106.42857"
     inkscape:cy="520"
     inkscape:document-units="px"
     inkscape:current-layer="layer1"
     showgrid="false"
     inkscape:window-width="1364"
     inkscape:window-height="743"
     inkscape:window-x="0"
     inkscape:window-y="0"
     inkscape:window-maximized="1" />
  <metadata
     id="metadata7">
    <rdf:RDF>
      <cc:Work
         rdf:about="">
        <dc:format>image/svg+xml</dc:format>
        <dc:type
           rdf:resource="http://purl.org/dc/dcmitype/StillImage" />
        <dc:title />
      </cc:Work>
    </rdf:RDF>
  </metadata>
  <g
     inkscape:label="Layer 1"
     inkscape:groupmode="layer"
     id="layer1">
    <rect
       style="fill:#a05a2c"
       id="rect3003"
       width="125.71429"
       height="49.285713"
       x="289.51831"
       y="654.86218" />
    <path
       style="fill:none;stroke:#000000;stroke-width:0.25px;stroke-linecap:butt;stroke-linejoin:miter;stroke-opacity:1"
       d="m 289.5183,679.86217 c -0.6423,3.657 2.62246,0.95409 3.57143,1.42857 0.30117,0.15059 0.41311,0.5637 0.71428,0.71429 0.21296,0.10648 0.50133,-0.10648 0.71429,0 0.30117,0.15058 0.41312,0.5637 0.71428,0.71428 0.42592,0.21296 1.00266,-0.21296 1.42858,0 0.85714,0.42857 1.28571,1.71429 2.14285,2.14286 0.21296,0.10648 0.54593,-0.16836 0.71429,0 0.16836,0.16836 -0.16836,0.54593 0,0.71428 0.16836,0.16836 0.54593,-0.16835 0.71428,0 0.16836,0.16836 -0.16835,0.54593 0,0.71429 0.16836,0.16836 0.54593,-0.16836 0.71429,0 0.16836,0.16836 -0.16836,0.54593 0,0.71429 0.16836,0.16835 0.50133,-0.10648 0.71429,0 0.30117,0.15058 0.41311,0.5637 0.71428,0.71428 0.21296,0.10648 0.50133,-0.10648 0.71429,0 0.30117,0.15059 0.41311,0.5637 0.71428,0.71429 0.42592,0.21296 1.00266,-0.21296 1.42857,0 0.30117,0.15058 0.41312,0.5637 0.71429,0.71428 0.44894,0.22448 2.4082,-0.22447 2.85714,0 0.30117,0.15059 0.41312,0.5637 0.71429,0.71429 0.21296,0.10648 0.47619,0 0.71428,0 0.2381,0 0.47619,0 0.71429,0 1.42857,0 2.85714,0 4.28571,0 1.42858,0 2.85715,0 4.28572,0 0.32168,0 1.92547,0.10869 2.14286,0 0.60233,-0.30117 0.82623,-1.1274 1.42857,-1.42857 0.42592,-0.21296 1.00265,0.21296 1.42857,0 0.30117,-0.15059 0.41312,-0.5637 0.71428,-0.71429 0.21296,-0.10648 0.50133,0.10648 0.71429,0 0.60234,-0.30117 0.82623,-1.1274 1.42857,-1.42857 0.21296,-0.10648 0.50133,0.10648 0.71429,0 2.66138,-1.33069 -1.23282,-0.0979 1.42857,-1.42857 0.21296,-0.10648 0.50133,0.10648 0.71428,0 0.30117,-0.15059 0.41312,-0.5637 0.71429,-0.71429 0.21296,-0.10648 0.50133,0.10648 0.71429,0 0.30117,-0.15058 0.41311,-0.5637 0.71428,-0.71428 0.21296,-0.10648 0.47619,0 0.71429,0 0.23809,0 0.47619,0 0.71428,0 0.17324,0 2.11989,-0.023 2.14286,0 0.16836,0.16836 -0.16836,0.54592 0,0.71428 0.16836,0.16836 0.50133,-0.10648 0.71429,0 0.60233,0.30117 0.82623,1.12741 1.42857,1.42857 0.21296,0.10648 0.54592,-0.16835 0.71428,0 0.16836,0.16836 -0.16836,0.54593 0,0.71429 0.16836,0.16836 0.50133,-0.10648 0.71429,0 0.30117,0.15059 0.41312,0.5637 0.71428,0.71429 0.21296,0.10648 0.47619,0 0.71429,0 0.2381,0.23809 0.41312,0.5637 0.71429,0.71428 0.44894,0.22447 2.40819,-0.22447 2.85714,0 0.30117,0.15059 0.41312,0.5637 0.71428,0.71429 0.21296,0.10648 0.47619,0 0.71429,0 0.2381,0.23809 0.41312,0.5637 0.71429,0.71428 0.42591,0.21296 1.00265,-0.21296 1.42857,0 0.30117,0.15059 0.41311,0.5637 0.71428,0.71429 0.21738,0.10869 1.82118,0 2.14286,0 0.64383,0 3.12186,0.14986 3.57143,0 0.50508,-0.16836 0.92349,-0.54593 1.42857,-0.71429 0.22588,-0.0753 0.50133,0.10648 0.71429,0 2.36898,-2.36898 -0.67344,0.33672 1.42857,-0.71428 0.30117,-0.15059 0.39484,-0.60781 0.71428,-0.71429 0.45176,-0.15058 0.97682,0.15059 1.42857,0 0.63888,-0.21296 0.7897,-1.21561 1.42858,-1.42857 0.45175,-0.15058 0.97681,0.15059 1.42857,0 0.31944,-0.10648 0.41311,-0.5637 0.71428,-0.71429 0.21296,-0.10647 0.48841,0.0753 0.71429,0 0.50508,-0.16835 0.92349,-0.54592 1.42857,-0.71428 0.45175,-0.15059 1.00265,0.21296 1.42857,0 0.30117,-0.15059 0.41312,-0.5637 0.71429,-0.71429 0.44894,-0.22447 2.4082,0.22448 2.85714,0 0.30117,-0.15058 0.41312,-0.5637 0.71429,-0.71428 0.42591,-0.21296 1.00265,0.21296 1.42857,0 0.30117,-0.15059 0.41311,-0.5637 0.71428,-0.71429 0.57143,-0.28571 1.57143,0.28572 2.14286,0 0.30117,-0.15058 0.41312,-0.5637 0.71429,-0.71428 0.21295,-0.10648 0.50132,0.10648 0.71428,0 0.30117,-0.15059 0.41312,-0.5637 0.71429,-0.71429 0.42592,-0.21296 1.00265,0.21296 1.42857,0 0.60234,-0.30117 0.82623,-1.1274 1.42857,-1.42857 0.21296,-0.10648 0.50133,0.10648 0.71429,0 3.04158,-1.52079 -1.61302,0.0922 1.42857,-1.42857 0.42592,-0.21296 1.00265,0.21296 1.42857,0 2.36899,-2.36899 -0.67344,0.33672 1.42857,-0.71429 0.30117,-0.15058 0.41312,-0.5637 0.71429,-0.71428 0.21295,-0.10648 0.47619,0 0.71428,0 0.2381,0 0.95238,0 0.71429,0 -0.47619,0 -1.90476,0 -1.42857,0 1.42857,0 2.85714,0 4.28571,0 0.2381,0 0.47619,0 0.71429,0 0.23809,0 0.50132,-0.10648 0.71428,0 0.30117,0.15058 0.41312,0.5637 0.71429,0.71428 0.28321,0.14161 1.99683,-0.14602 2.14285,0 0.16836,0.16836 -0.16835,0.54593 0,0.71429 0.33672,0.33672 1.00266,-0.21296 1.42858,0 2.97268,1.48634 -0.7636,-0.0493 0.71428,1.42857 0.16836,0.16836 0.50133,-0.10648 0.71429,0 0.30117,0.15058 0.41311,0.5637 0.71428,0.71428 0.42592,0.21296 1.09186,-0.33671 1.42857,0 0.16836,0.16836 -0.16835,0.54593 0,0.71429 0.16836,0.16836 0.50133,-0.10648 0.71429,0 0.30117,0.15059 0.41312,0.5637 0.71429,0.71429 0.21295,0.10648 0.50132,-0.10648 0.71428,0 0.60234,0.30117 0.82623,1.1274 1.42857,1.42857 0.42592,0.21296 1.09186,-0.33672 1.42857,0 0.16836,0.16836 -0.16835,0.54592 0,0.71428 0.16836,0.16836 0.50133,-0.10648 0.71429,0 0.30117,0.15059 0.41312,0.5637 0.71429,0.71429 0.49338,0.24669 3.3207,-0.25073 3.57142,0 0.16836,0.16836 -0.16835,0.54593 0,0.71428 0.16836,0.16836 0.47619,0 0.71429,0 0.2381,0 0.54593,0.16836 0.71429,0 1.47788,-1.47788 -2.2584,0.0578 0.71428,-1.42857 0.42592,-0.21296 1.00266,0.21296 1.42857,0 0.30117,-0.15058 0.41312,-0.5637 0.71429,-0.71428 0.21296,-0.10648 0.47619,0 0.71428,0 0.2381,0 0.47619,0 0.71429,0"
       id="path3005"
       inkscape:connector-curvature="0" />
    <path
       style="fill:#00ff00"
       d="m 306.62899,688.7382 c -1.80519,-0.48658 -4.69804,-2.00944 -6.42857,-3.38414 -3.43454,-2.72833 -6.40724,-4.20618 -8.46074,-4.20618 -0.7252,0 -1.51364,-0.50843 -1.7521,-1.12984 -0.23846,-0.62142 -0.43357,-6.40714 -0.43357,-12.85715 l 0,-11.72729 62.5151,0 62.5151,0 -0.19367,14.10446 -0.19367,14.10445 -3.07738,0.64868 c -2.62275,0.55284 -3.5197,0.40624 -6.07143,-0.99233 -1.64673,-0.90256 -3.87798,-2.10072 -4.95833,-2.66259 -1.08036,-0.56188 -1.96429,-1.28132 -1.96429,-1.59876 0,-0.74839 -5.67966,-2.17534 -8.65844,-2.17534 -2.69059,0 -6.98997,1.38508 -8.37702,2.69872 -1.4415,1.36522 -5.08559,2.74489 -10.93846,4.14137 -2.8822,0.68768 -7.32965,2.20364 -9.88322,3.3688 -5.863,2.6752 -9.57816,3.14213 -13.14449,1.65202 -1.50934,-0.63064 -3.29964,-1.14663 -3.97843,-1.14663 -0.67879,0 -2.56533,-0.96428 -4.1923,-2.14285 -1.62697,-1.17857 -3.74936,-2.14286 -4.71642,-2.14286 -1.81578,0 -5.46129,1.35584 -6.13867,2.28311 -0.21153,0.28956 -1.91604,1.34074 -3.7878,2.33596 -2.82891,1.50415 -4.33097,1.80137 -8.90112,1.76129 -3.02385,-0.0265 -6.97489,-0.44632 -8.78008,-0.9329 l 0,0 z"
       id="path3007"
       inkscape:connector-curvature="0" />
  </g>
</svg>
