<?xml version="1.0" encoding="UTF-8" standalone="no"?>
<!-- Created with Inkscape (http://www.inkscape.org/) -->

<svg
   xmlns:dc="http://purl.org/dc/elements/1.1/"
   xmlns:cc="http://creativecommons.org/ns#"
   xmlns:rdf="http://www.w3.org/1999/02/22-rdf-syntax-ns#"
   xmlns:svg="http://www.w3.org/2000/svg"
   xmlns="http://www.w3.org/2000/svg"
   xmlns:sodipodi="http://sodipodi.sourceforge.net/DTD/sodipodi-0.dtd"
   xmlns:inkscape="http://www.inkscape.org/namespaces/inkscape"
   width="20"
   height="50"
   id="svg2"
   version="1.1"
   inkscape:version="0.48.4 r9939"
   sodipodi:docname="New document 1">
  <defs
     id="defs4" />
  <sodipodi:namedview
     id="base"
     pagecolor="#ffffff"
     bordercolor="#666666"
     borderopacity="1.0"
     inkscape:pageopacity="0.0"
     inkscape:pageshadow="2"
     inkscape:zoom="5.6"
     inkscape:cx="20.573142"
     inkscape:cy="20.255463"
     inkscape:document-units="px"
     inkscape:current-layer="layer1"
     showgrid="false"
     inkscape:window-width="681"
     inkscape:window-height="743"
     inkscape:window-x="0"
     inkscape:window-y="0"
     inkscape:window-maximized="0" />
  <metadata
     id="metadata7">
    <rdf:RDF>
      <cc:Work
         rdf:about="">
        <dc:format>image/svg+xml</dc:format>
        <dc:type
           rdf:resource="http://purl.org/dc/dcmitype/StillImage" />
        <dc:title></dc:title>
      </cc:Work>
    </rdf:RDF>
  </metadata>
  <g
     inkscape:label="Layer 1"
     inkscape:groupmode="layer"
     id="layer1"
     transform="translate(0,-1002.3622)">
    <path
       style="fill:none;stroke:#000000;stroke-width:1px;stroke-linecap:butt;stroke-linejoin:miter;stroke-opacity:1"
       d="m 8.5862966,1050.4682 3.8543794,0 -0.920866,-1.8954 0.223214,-7.9536 2.020305,0.6313 1.894036,-4.5457 -2.651651,-0.1262 -0.757614,2.2728 -1.136422,-0.2525 0.126269,-4.1669 0.505077,-0.2525 -0.126269,-26.264 -1.515229,-3.6618 -1.7677675,3.5355 -0.1262691,26.264 0.3788072,0.5051 0.1262691,3.788 -1.1364216,0.2526 -0.8838835,-2.0203 -2.9041886,0 2.3991123,4.5457 2.1465742,-0.7577 0.1262691,8.3338 -0.8022573,1.7384 z"
       id="path2985"
       inkscape:connector-curvature="0"
       sodipodi:nodetypes="ccccccccccccccccccccccccc" />
    <path
       style="fill:none;stroke:#000000;stroke-width:1px;stroke-linecap:butt;stroke-linejoin:miter;stroke-opacity:1"
       d="m 8.5862966,35.984133 2.1465744,0.126269 0,0 z"
       id="path2987"
       inkscape:connector-curvature="0"
       transform="translate(0,1002.3622)" />
    <path
       style="fill:none;stroke:#000000;stroke-width:1px;stroke-linecap:butt;stroke-linejoin:miter;stroke-opacity:1"
       d="m 8.4600276,37.7519 3.0304574,0.252539 z"
       id="path2989"
       inkscape:connector-curvature="0"
       transform="translate(0,1002.3622)" />
    <path
       style="fill:#dbe2e3;fill-opacity:1"
       d="M 9.4346634,35.441614 C 9.3366694,35.379324 9.2515458,34.742815 9.1942876,33.644213 9.134619,32.499364 9.0455101,31.850678 8.9217322,31.660092 8.7621951,31.414447 8.7501627,29.6662 8.8309161,18.464975 L 8.9240027,5.5530192 9.4883373,4.4264527 10.052672,3.2998861 l 0.48868,1.1671339 0.488679,1.1671339 0.08782,12.9185761 0.08782,12.918577 -0.272997,0.08665 c -0.25617,0.0813 -0.273065,0.165899 -0.274095,1.372394 -6.06e-4,0.707161 -0.03693,1.584059 -0.08072,1.948661 l -0.07963,0.662913 -0.45592,-0.0019 c -0.2507569,-0.001 -0.5241968,-0.04533 -0.6076446,-0.09838 l 0,-10e-7 z"
       id="path2991"
       inkscape:connector-curvature="0"
       transform="translate(0,1002.3622)" />
    <path
       style="fill:#803300;fill-opacity:1"
       d="M 12.483856,37.885034 C 12.189213,37.781386 11.867785,37.635921 11.769571,37.561778 11.671356,37.487636 10.947809,37.371275 10.161689,37.303199 8.9438553,37.197737 8.5927989,37.234441 7.7890064,37.551266 7.270152,37.75578 6.748163,37.922764 6.6290312,37.922343 6.46244,37.921754 5.3247917,35.991718 4.9243324,35.030299 c -0.032738,-0.0786 0.2696145,-0.142905 0.6718947,-0.142905 0.7129043,0 0.7421743,0.02432 1.1563391,0.960822 l 0.4249209,0.960821 1.5817559,-0.08342 c 1.0745795,-0.05667 1.95147,0.0051 2.734801,0.192681 0.634175,0.151855 1.165584,0.259256 1.18091,0.238669 0.01533,-0.02059 0.185703,-0.519574 0.378616,-1.108859 0.340398,-1.039805 0.37081,-1.073107 1.030376,-1.128269 0.543103,-0.04542 0.65907,-0.0033 0.577302,0.209809 -0.653983,1.704251 -1.267785,2.969355 -1.435127,2.957933 -0.113603,-0.0078 -0.447622,-0.0989 -0.742265,-0.202548 z"
       id="path2993"
       inkscape:connector-curvature="0"
       transform="translate(0,1002.3622)" />
    <path
       style="fill:#483737;fill-opacity:1"
       d="m 8.759394,47.253466 c 0.084169,-0.171875 0.1759229,-2.224909 0.2038987,-4.562297 l 0.050865,-4.249797 1.0205633,0.05337 1.020564,0.05337 -0.06657,3.939684 c -0.05741,3.397905 -0.02609,4.017966 0.2278,4.508929 l 0.294368,0.569244 -1.452262,0 c -1.3223583,0 -1.4385739,-0.02795 -1.299229,-0.3125 z"
       id="path2995"
       inkscape:connector-curvature="0"
       transform="translate(0,1002.3622)" />
  </g>
</svg>
