<?xml version="1.0" encoding="UTF-8" standalone="no"?>
<!-- Created with Inkscape (http://www.inkscape.org/) -->

<svg
   xmlns:dc="http://purl.org/dc/elements/1.1/"
   xmlns:cc="http://creativecommons.org/ns#"
   xmlns:rdf="http://www.w3.org/1999/02/22-rdf-syntax-ns#"
   xmlns:svg="http://www.w3.org/2000/svg"
   xmlns="http://www.w3.org/2000/svg"
   xmlns:sodipodi="http://sodipodi.sourceforge.net/DTD/sodipodi-0.dtd"
   xmlns:inkscape="http://www.inkscape.org/namespaces/inkscape"
   width="50"
   height="50"
   id="svg2"
   version="1.1"
   inkscape:version="0.48.4 r9939"
   sodipodi:docname="New document 1">
  <defs
     id="defs4" />
  <sodipodi:namedview
     id="base"
     pagecolor="#ffffff"
     bordercolor="#666666"
     borderopacity="1.0"
     inkscape:pageopacity="0.0"
     inkscape:pageshadow="2"
     inkscape:zoom="7.9195959"
     inkscape:cx="26.673572"
     inkscape:cy="21.756133"
     inkscape:document-units="px"
     inkscape:current-layer="layer1"
     showgrid="false"
     inkscape:window-width="681"
     inkscape:window-height="743"
     inkscape:window-x="683"
     inkscape:window-y="0"
     inkscape:window-maximized="0" />
  <metadata
     id="metadata7">
    <rdf:RDF>
      <cc:Work
         rdf:about="">
        <dc:format>image/svg+xml</dc:format>
        <dc:type
           rdf:resource="http://purl.org/dc/dcmitype/StillImage" />
        <dc:title></dc:title>
      </cc:Work>
    </rdf:RDF>
  </metadata>
  <g
     inkscape:label="Layer 1"
     inkscape:groupmode="layer"
     id="layer1"
     transform="translate(0,-1002.3622)">
    <path
       sodipodi:type="arc"
       style="fill:#ffe680;fill-opacity:1"
       id="path3024"
       sodipodi:cx="21.970818"
       sodipodi:cy="20.831844"
       sodipodi:rx="11.111678"
       sodipodi:ry="6.9447989"
       d="m 33.082496,20.831844 a 11.111678,6.9447989 0 1 1 -22.223357,0 11.111678,6.9447989 0 1 1 22.223357,0 z"
       transform="translate(2.2728432,997.18517)" />
    <path
       style="fill:none;stroke:#000000;stroke-width:1px;stroke-linecap:butt;stroke-linejoin:miter;stroke-opacity:1"
       d="m 15.026019,1014.2289 c 0,0.2526 0,0.5051 0,0.7577 0,0.042 0.01882,0.089 0,0.1262 -0.02662,0.053 -0.09965,0.073 -0.126269,0.1263 -0.03765,0.075 0.03765,0.1772 0,0.2525 -0.02662,0.053 -0.09965,0.073 -0.126269,0.1263 -0.03968,0.079 0.03968,0.4257 0,0.5051 -0.02662,0.053 -0.09965,0.073 -0.126269,0.1262 -0.05051,0.1011 0.05051,0.2778 0,0.3789 -0.02662,0.053 -0.09965,0.073 -0.126269,0.1262 -0.05051,0.101 0.05051,0.2778 0,0.3788 -0.05324,0.1065 -0.199299,0.1461 -0.252539,0.2526 -0.02503,0.05 0.02581,0.353 0,0.3788 -0.02976,0.03 -0.09651,-0.03 -0.126269,0 -0.05952,0.059 0.03765,0.1772 0,0.2525 -0.02662,0.053 -0.09965,0.073 -0.126269,0.1263 -0.0166,0.033 0,0.439 0,0.5051"
       id="path3030"
       inkscape:connector-curvature="0" />
    <path
       style="fill:none;stroke:#000000;stroke-width:1px;stroke-linecap:butt;stroke-linejoin:miter;stroke-opacity:1"
       d="m 16.920055,1013.5976 c 0.193956,0.4323 -0.269051,0.4118 -0.378807,0.6313 -0.01882,0.038 0.01882,0.089 0,0.1263 -0.02662,0.053 -0.09965,0.073 -0.126269,0.1263 -0.02503,0.05 0.02581,0.353 0,0.3788 -0.02976,0.03 -0.09651,-0.03 -0.126269,0 -0.05952,0.059 0.03765,0.1772 0,0.2525 -0.02662,0.053 -0.09965,0.073 -0.126269,0.1263 -0.03765,0.075 0.03765,0.1772 0,0.2525 -0.02662,0.053 -0.09965,0.073 -0.12627,0.1263 -0.01882,0.038 0.01882,0.089 0,0.1263 -0.02662,0.053 -0.09965,0.073 -0.126269,0.1262 -0.01921,0.038 0,0.322 0,0.3788 0,0.042 0,0.084 0,0.1263 0,0.042 0.02976,0.096 0,0.1263 -0.02976,0.03 -0.09651,-0.03 -0.126269,0 -0.03455,0.034 0.03425,0.4366 0,0.5051 -0.02662,0.053 -0.09965,0.073 -0.126269,0.1262 -0.03765,0.075 0.03765,0.1773 0,0.2526 -0.02662,0.053 -0.09965,0.073 -0.126269,0.1262 -0.02503,0.05 0.02581,0.353 0,0.3788 -0.02976,0.03 -0.09651,-0.03 -0.126269,0 -0.02976,0.03 0,0.084 0,0.1263 0,0.042 0,0.084 0,0.1263"
       id="path3032"
       inkscape:connector-curvature="0" />
    <path
       style="fill:none;stroke:#000000;stroke-width:1px;stroke-linecap:butt;stroke-linejoin:miter;stroke-opacity:1"
       d="m 18.309015,1012.5874 c 0,0.1684 0.02768,0.3391 0,0.5051 -0.01547,0.093 -0.09651,0.1633 -0.126269,0.2526 -0.01331,0.04 0.01882,0.089 0,0.1262 -0.02662,0.053 -0.09965,0.073 -0.126269,0.1263 -0.03765,0.075 0.03765,0.1772 0,0.2525 -0.02662,0.053 -0.107446,0.07 -0.12627,0.1263 0,0.5748 0.05952,0.01 -0.126269,0.3788 -0.03968,0.079 0.03968,0.4257 0,0.5051 -0.02662,0.053 -0.09965,0.073 -0.126269,0.1263 -0.05051,0.101 0.05051,0.2777 0,0.3788 -0.02662,0.053 -0.09965,0.073 -0.126269,0.1262 -0.05051,0.101 0.05051,0.2778 0,0.3788 -0.02662,0.053 -0.09965,0.073 -0.126269,0.1263 -0.05051,0.101 0.05051,0.2778 0,0.3788 -0.02662,0.053 -0.09965,0.073 -0.126269,0.1263 -0.02503,0.05 0.02581,0.353 0,0.3788 -0.02976,0.03 -0.09651,-0.03 -0.126269,0 -0.02976,0.03 0,0.084 0,0.1263 0,0.042 0,0.084 0,0.1262"
       id="path3034"
       inkscape:connector-curvature="0" />
    <path
       style="fill:none;stroke:#000000;stroke-width:1px;stroke-linecap:butt;stroke-linejoin:miter;stroke-opacity:1"
       d="m 20.455589,1011.5773 c -0.124272,0.4145 -0.352236,0.6048 -0.631345,0.8839 -0.04209,0.042 -0.09965,0.073 -0.12627,0.1262 -0.01882,0.038 0.01882,0.089 0,0.1263 -0.02662,0.053 -0.09965,0.073 -0.126269,0.1263 -0.01882,0.038 0.01882,0.089 0,0.1263 -0.02662,0.053 -0.09965,0.073 -0.126269,0.1262 -0.01882,0.038 0.01882,0.089 0,0.1263 -0.02662,0.053 -0.09965,0.073 -0.126269,0.1263 -0.01882,0.038 0.01882,0.089 0,0.1262 -0.02662,0.053 -0.09965,0.073 -0.126269,0.1263 -0.03968,0.079 0.03968,0.4257 0,0.5051 -0.02662,0.053 -0.09965,0.073 -0.126269,0.1262 -0.01921,0.038 0,0.322 0,0.3788 0,0.2526 0,0.5051 0,0.7577 0,0.057 0.01921,0.3403 0,0.3788 -0.02662,0.053 -0.09965,0.073 -0.126269,0.1262 -0.02283,0.046 0,0.5436 0,0.6314"
       id="path3036"
       inkscape:connector-curvature="0" />
    <path
       style="fill:none;stroke:#000000;stroke-width:1px;stroke-linecap:butt;stroke-linejoin:miter;stroke-opacity:1"
       d="m 22.349625,1011.0722 c -0.724681,0.043 -0.151173,0.4286 -0.252538,0.6314 -0.02924,0.058 -0.430812,0.4308 -0.505077,0.505 -0.04209,0.042 -0.09965,0.073 -0.126269,0.1263 -0.01882,0.038 0.01882,0.089 0,0.1263 -0.04021,0.08 -0.532127,0.5321 -0.631345,0.6313 -0.07426,0.074 -0.47584,0.4466 -0.505076,0.5051 -0.01882,0.038 0.01882,0.089 0,0.1263 -0.05324,0.1064 -0.199299,0.146 -0.252538,0.2525 -0.01882,0.038 0.02976,0.096 0,0.1263 -0.261256,0.2612 0.01021,-0.3993 -0.252538,0.1262 -0.03765,0.075 0.03765,0.1773 0,0.2526 -0.02662,0.053 -0.09965,0.073 -0.12627,0.1262 -0.01882,0.038 0.01882,0.089 0,0.1263 -0.02662,0.053 -0.09965,0.073 -0.126269,0.1263 -0.03765,0.075 0.03765,0.1772 0,0.2525 -0.156031,0.3121 -0.126269,-0.044 -0.126269,0.2526 0,0.066 -0.0166,0.4718 0,0.505 0.02662,0.053 0.09965,0.073 0.126269,0.1263 0.03765,0.075 -0.03765,0.1773 0,0.2525 0.02662,0.053 0.09965,0.073 0.126269,0.1263 0.01882,0.038 -0.01882,0.089 0,0.1263 0.02662,0.053 0.09965,0.073 0.12627,0.1263 0.08418,0.1683 -0.12627,0.1262 0.126269,0.1262"
       id="path3038"
       inkscape:connector-curvature="0" />
    <path
       style="fill:none;stroke:#000000;stroke-width:1px;stroke-linecap:butt;stroke-linejoin:miter;stroke-opacity:1"
       d="m 23.991123,1011.451 c -0.210449,0.2105 -0.420897,0.4209 -0.631346,0.6314 -0.04209,0.042 -0.09965,0.073 -0.126269,0.1262 -0.01882,0.038 0.01882,0.089 0,0.1263 -0.07576,0.1515 -0.303045,0.2273 -0.378807,0.3788 -0.01882,0.038 0.01882,0.089 0,0.1263 -0.02662,0.053 -0.09965,0.073 -0.126269,0.1263 -0.01882,0.038 0.01882,0.089 0,0.1262 -0.07576,0.1515 -0.303046,0.2273 -0.378807,0.3788 -0.01882,0.038 0.01882,0.089 0,0.1263 -0.02662,0.053 -0.08418,0.084 -0.126269,0.1263 -0.09922,0.099 -0.591131,0.5509 -0.631346,0.6313 -0.01882,0.038 0.01882,0.089 0,0.1263 -0.02662,0.053 -0.09965,0.073 -0.126269,0.1262 -0.03765,0.075 0.03765,0.1773 0,0.2526 -0.02662,0.053 -0.09965,0.073 -0.126269,0.1263 -0.03765,0.075 0.03765,0.1772 0,0.2525 -0.02662,0.053 -0.09965,0.073 -0.126269,0.1263 -0.01882,0.038 0,0.084 0,0.1262 0,0.042 0,0.084 0,0.1263"
       id="path3040"
       inkscape:connector-curvature="0" />
    <path
       style="fill:none;stroke:#000000;stroke-width:1px;stroke-linecap:butt;stroke-linejoin:miter;stroke-opacity:1"
       d="m 25.001275,1011.451 c 0.171873,0.3254 -0.401218,0.5499 -0.505076,0.7576 -0.01882,0.038 0.01882,0.089 0,0.1263 -0.02662,0.053 -0.08418,0.084 -0.126269,0.1263 -0.09863,0.099 -0.306169,0.2698 -0.378807,0.3788 -0.05221,0.078 -0.07406,0.1742 -0.126269,0.2525 -0.03302,0.05 -0.09325,0.077 -0.126269,0.1263 -0.05221,0.078 -0.07406,0.1742 -0.126269,0.2525 -0.03302,0.05 -0.09965,0.073 -0.12627,0.1263 -0.03765,0.075 0.03765,0.1772 0,0.2525 -0.02662,0.053 -0.09965,0.073 -0.126269,0.1263 -0.03765,0.075 0.03765,0.1772 0,0.2525 -0.02662,0.053 -0.09965,0.073 -0.126269,0.1263 -0.03983,0.08 0.03983,0.5517 0,0.6314 -0.02662,0.053 -0.09965,0.073 -0.126269,0.1262 -0.05051,0.101 0.05051,0.2778 0,0.3788 -0.02662,0.053 -0.09965,0.073 -0.126269,0.1263 -0.03968,0.079 0.03968,0.4257 0,0.5051 -0.02662,0.053 -0.08418,0.084 -0.126269,0.1262"
       id="path3042"
       inkscape:connector-curvature="0" />
    <path
       style="fill:none;stroke:#000000;stroke-width:1px;stroke-linecap:butt;stroke-linejoin:miter;stroke-opacity:1"
       d="m 26.263966,1011.0722 c -0.53221,0.1012 -0.03029,0.4394 -0.126269,0.6314 -0.02662,0.053 -0.09965,0.073 -0.126269,0.1262 -0.03968,0.079 0.03968,0.4257 0,0.5051 -0.02662,0.053 -0.09965,0.073 -0.126269,0.1263 -0.03765,0.075 0.03765,0.1772 0,0.2525 -0.02662,0.053 -0.107446,0.07 -0.126269,0.1263 -0.02662,0.08 0.02662,0.1727 0,0.2525 -0.01882,0.057 -0.107446,0.07 -0.126269,0.1263 -0.02662,0.08 0.02662,0.1727 0,0.2525 -0.03765,0.113 -0.199299,0.1461 -0.252538,0.2526 -0.05051,0.101 0.05051,0.2778 0,0.3788 -0.02662,0.053 -0.09965,0.073 -0.12627,0.1262 -0.03765,0.075 0.03765,0.1773 0,0.2526 -0.02662,0.053 -0.09965,0.073 -0.126269,0.1262 -0.01882,0.038 0.02976,0.097 0,0.1263 -0.02976,0.03 -0.09651,-0.03 -0.126269,0 -0.02976,0.03 0.01882,0.089 0,0.1263 -0.02662,0.053 -0.09965,0.073 -0.126269,0.1263 -0.01882,0.038 0.01882,0.089 0,0.1262 -0.02662,0.053 -0.09965,0.073 -0.126269,0.1263 -0.03765,0.075 0.03765,0.1772 0,0.2525 -0.07576,0.1516 -0.303046,0.2273 -0.378807,0.3788 -0.03765,0.075 0.03765,0.1773 0,0.2526 -0.02662,0.053 -0.09965,0.073 -0.126269,0.1262 -0.01882,0.038 0.01882,0.089 0,0.1263 -0.02662,0.053 -0.09965,0.073 -0.126269,0.1263 -0.03765,0.075 0.05952,0.193 0,0.2525 -0.02976,0.03 -0.09651,-0.03 -0.126269,0 -0.05952,0.06 0.03765,0.1773 0,0.2526 -0.02662,0.053 -0.08418,0.084 -0.126269,0.1262"
       id="path3044"
       inkscape:connector-curvature="0" />
    <path
       style="fill:none;stroke:#000000;stroke-width:1px;stroke-linecap:butt;stroke-linejoin:miter;stroke-opacity:1"
       d="m 27.400388,1011.451 c 0.04209,0.1684 0.09223,0.3349 0.126269,0.5051 0.02476,0.1238 0,0.2525 0,0.3788 0,0.2105 0,0.4209 0,0.6314 0,0.066 0.0166,0.4718 0,0.505 -0.05324,0.1065 -0.199299,0.1461 -0.252538,0.2526 -0.01882,0.038 0.01882,0.089 0,0.1262 -0.02662,0.053 -0.09965,0.073 -0.12627,0.1263 -0.01882,0.038 0.01882,0.089 0,0.1263 -0.05596,0.1119 -0.302177,0.2638 -0.378807,0.3788 -0.05221,0.078 -0.07406,0.1742 -0.126269,0.2525 -0.06604,0.099 -0.168359,0.1684 -0.252538,0.2526 -0.126269,0.1262 -0.252538,0.2525 -0.378807,0.3788 -0.04209,0.042 -0.08418,0.084 -0.126269,0.1262 -0.04209,0.042 -0.09965,0.073 -0.126269,0.1263 -0.01882,0.038 0.01882,0.089 0,0.1263 -0.02662,0.053 -0.09965,0.073 -0.126269,0.1262 -0.01882,0.038 0.02976,0.096 0,0.1263 -0.02976,0.03 -0.09651,-0.03 -0.126269,0 -0.02976,0.03 0,0.084 0,0.1263 0,0.042 0,0.084 0,0.1262"
       id="path3046"
       inkscape:connector-curvature="0" />
    <path
       style="fill:none;stroke:#000000;stroke-width:1px;stroke-linecap:butt;stroke-linejoin:miter;stroke-opacity:1"
       d="m 29.294424,1011.451 c 0,0.4209 0,0.8418 0,1.2627 0,0.042 0,0.084 0,0.1263 0,0.042 -0.01882,0.089 0,0.1263 0.02662,0.053 0.09965,0.073 0.126269,0.1262 0.01921,0.038 0,0.322 0,0.3788 0,0.089 0.01632,0.725 0,0.7576 -0.02662,0.053 -0.09965,0.073 -0.126269,0.1263 -0.03765,0.075 0.03765,0.1773 0,0.2525 -0.02662,0.053 -0.09965,0.073 -0.126269,0.1263 -0.01882,0.038 0.01882,0.089 0,0.1263 -0.05324,0.1065 -0.186503,0.1535 -0.252539,0.2525 -0.0522,0.078 -0.07406,0.1743 -0.126269,0.2526 -0.03302,0.049 -0.09325,0.077 -0.126269,0.1262 -0.305778,0.4587 0.03698,0.089 -0.252538,0.3788 -0.07426,0.074 -0.47584,0.4466 -0.505076,0.5051 -0.03765,0.075 0.05952,0.193 0,0.2526 -0.02976,0.03 -0.09651,-0.03 -0.126269,0 -0.02976,0.03 0.01882,0.089 0,0.1262 -0.02662,0.053 -0.09965,0.073 -0.126269,0.1263 -0.01882,0.038 0.02976,0.096 0,0.1263 -0.02976,0.03 -0.09651,-0.03 -0.126269,0 -0.168359,0.1683 0.210448,0.1262 -0.126269,0.1262"
       id="path3048"
       inkscape:connector-curvature="0" />
    <path
       style="fill:none;stroke:#000000;stroke-width:1px;stroke-linecap:butt;stroke-linejoin:miter;stroke-opacity:1"
       d="m 30.430845,1012.2086 c 0.646472,-0.1135 0.168661,0.4636 0.252538,0.6314 0.02662,0.053 0.09965,0.073 0.126269,0.1263 0.03765,0.075 -0.03765,0.1772 0,0.2525 0.02662,0.053 0.09965,0.073 0.12627,0.1263 0.01882,0.038 -0.01882,0.089 0,0.1262 0.02662,0.053 0.09965,0.073 0.126269,0.1263 0.01882,0.038 -0.01882,0.089 0,0.1263 0.07576,0.1515 0.303045,0.2272 0.378807,0.3788 0.01882,0.038 -0.01882,0.089 0,0.1262 0.02662,0.053 0.09965,0.073 0.126269,0.1263 0.01921,0.038 0,0.322 0,0.3788 0,0.088 0.02283,0.5857 0,0.6314 -0.02662,0.053 -0.09965,0.073 -0.126269,0.1262 -0.01882,0.038 0.01882,0.089 0,0.1263 -0.02662,0.053 -0.09965,0.073 -0.126269,0.1263 -0.01882,0.038 0.01882,0.089 0,0.1262 -0.07576,0.1516 -0.303046,0.2273 -0.378807,0.3788 -0.185793,0.3716 0.292512,-0.1662 -0.12627,0.2526"
       id="path3050"
       inkscape:connector-curvature="0" />
    <path
       style="fill:none;stroke:#000000;stroke-width:1px;stroke-linecap:butt;stroke-linejoin:miter;stroke-opacity:1"
       d="m 33.335034,1013.5976 c 0,0.1684 0.03302,0.34 0,0.5051 -0.01167,0.058 -0.09965,0.073 -0.126269,0.1262 -0.03968,0.079 0.03968,0.4258 0,0.5051 -0.02662,0.053 -0.09965,0.073 -0.126269,0.1263 -0.03968,0.079 0.03968,0.4257 0,0.5051 -0.02662,0.053 -0.09965,0.073 -0.126269,0.1262 -0.03765,0.075 0.03765,0.1773 0,0.2526 -0.02662,0.053 -0.09965,0.073 -0.126269,0.1262 -0.01882,0.038 0,0.084 0,0.1263 -0.04209,0.042 -0.09965,0.073 -0.12627,0.1263 -0.01882,0.038 0.01882,0.089 0,0.1262 -0.02662,0.053 -0.09965,0.073 -0.126269,0.1263 -0.03765,0.075 0.03765,0.1773 0,0.2526 -0.02662,0.053 -0.09965,0.073 -0.126269,0.1262 -0.01882,0.038 0.01882,0.089 0,0.1263 -0.02662,0.053 -0.09965,0.073 -0.126269,0.1263 -0.03765,0.075 0.05952,0.193 0,0.2525 -0.02976,0.03 -0.09651,-0.03 -0.126269,0 -0.02976,0.03 0,0.084 0,0.1263 0,0.042 0,0.084 0,0.1262"
       id="path3052"
       inkscape:connector-curvature="0" />
    <path
       style="fill:none;stroke:#000000;stroke-width:1px;stroke-linecap:butt;stroke-linejoin:miter;stroke-opacity:1"
       d="m 34.471455,1015.6179 c 0.257204,0.3823 0.252539,0.4227 0.252539,0.7576 0,0.042 0.01882,0.089 0,0.1263 -0.02662,0.053 -0.09965,0.073 -0.126269,0.1263 -0.02503,0.05 0.02581,0.3529 0,0.3788 -0.02976,0.03 -0.09651,-0.03 -0.12627,0 -0.02976,0.03 0.02976,0.096 0,0.1262 -0.02976,0.03 -0.09651,-0.03 -0.126269,0 -0.05952,0.06 0.03765,0.1773 0,0.2526 -0.05324,0.1064 -0.199298,0.146 -0.252538,0.2525 -0.03765,0.075 0.03765,0.1773 0,0.2525 -0.02662,0.053 -0.09965,0.073 -0.126269,0.1263 -0.01882,0.038 0.01882,0.089 0,0.1263 -0.02662,0.053 -0.09965,0.073 -0.126269,0.1263 -0.01921,0.038 0,0.3219 0,0.3788"
       id="path3054"
       inkscape:connector-curvature="0" />
    <path
       style="fill:none;stroke:#000000;stroke-width:1px;stroke-linecap:butt;stroke-linejoin:miter;stroke-opacity:1"
       d="m 14.89975,1014.9866 c -0.252538,0.2525 -0.505076,0.505 -0.757615,0.7576 -0.04209,0.042 -0.09965,0.073 -0.126269,0.1262 -0.01882,0.038 0.01882,0.089 0,0.1263 -0.05324,0.1065 -0.199298,0.1461 -0.252538,0.2525 -0.03765,0.075 0.03765,0.1773 0,0.2526 -0.05324,0.1065 -0.199298,0.146 -0.252538,0.2525 -0.03765,0.075 0.03765,0.1773 0,0.2526 -0.02662,0.053 -0.09965,0.073 -0.126269,0.1262 -0.01882,0.038 0.01882,0.089 0,0.1263 -0.02662,0.053 -0.09965,0.073 -0.126269,0.1263 -0.03765,0.075 0.03765,0.1772 0,0.2525 -0.02662,0.053 -0.09965,0.073 -0.126269,0.1263 -0.03765,0.075 0.03765,0.1772 0,0.2525 -0.02662,0.053 -0.09965,0.073 -0.126269,0.1263 -0.03765,0.075 0.05952,0.193 0,0.2525 -0.02976,0.03 -0.126269,0.042 -0.126269,0 0,-0.084 0.193014,0.059 0.252538,0 0.02976,-0.03 -0.02976,-0.096 0,-0.1262 0.02976,-0.03 0.09651,0.03 0.126269,0 0.02976,-0.03 -0.02976,-0.097 0,-0.1263 0.168359,-0.1684 0.126269,0.2104 0.126269,-0.1263"
       id="path3056"
       inkscape:connector-curvature="0" />
    <path
       style="fill:none;stroke:#000000;stroke-width:1px;stroke-linecap:butt;stroke-linejoin:miter;stroke-opacity:1"
       d="m 15.657364,1013.7239 c -0.09895,-0.4335 0.498246,-0.3652 0.631346,-0.6314 0.01882,-0.038 -0.01882,-0.089 0,-0.1262 0.26275,-0.5256 -0.0087,0.1349 0.252538,-0.1263 0.02976,-0.03 -0.02976,-0.096 0,-0.1263 0.02976,-0.03 0.126269,-0.042 0.126269,0 0,0.059 -0.08418,0.084 -0.126269,0.1263 -0.08418,0.084 -0.18111,0.1573 -0.252538,0.2525 -0.05647,0.075 -0.05972,0.186 -0.126269,0.2526 -0.14881,0.1488 -0.505077,0.1683 -0.505077,0.3788 0,0.1683 0.348759,0.062 0.505077,0 0.399141,-0.1597 1.038034,-0.755 1.388959,-1.0102 0.368193,-0.2678 0.757615,-0.5051 1.136422,-0.7576 0.126269,-0.084 0.252538,-0.1684 0.378807,-0.2525 0.126269,-0.084 0.243072,-0.1847 0.378807,-0.2526 0.119048,-0.06 0.255228,-0.077 0.378808,-0.1262 0.258692,-0.1035 0.493487,-0.2908 0.757614,-0.3789 0.07986,-0.027 0.168359,0 0.252538,0 0.04209,0 0.126269,-0.042 0.126269,0 0,0.097 -0.377902,0.2514 -0.378807,0.2526 -0.07986,0.1065 -0.04641,0.2723 -0.126269,0.3788 -0.05647,0.075 -0.185989,0.06 -0.252538,0.1263 -0.107308,0.1073 -0.14523,0.2715 -0.252538,0.3788 -0.05801,0.058 -0.650457,0.3252 -0.757615,0.3788 -0.08418,0.042 -0.174229,0.074 -0.252538,0.1262 -0.09905,0.066 -0.146059,0.1993 -0.252538,0.2526 -0.03765,0.019 -0.09651,-0.03 -0.126269,0 -0.02976,0.03 0.02976,0.096 0,0.1263 -0.02976,0.03 -0.163915,0.019 -0.126269,0 0.119047,-0.06 0.256469,-0.074 0.378807,-0.1263 0.173011,-0.074 0.330308,-0.1826 0.505076,-0.2526 0.247159,-0.099 0.505077,-0.1683 0.757615,-0.2525 0.252538,-0.084 0.499364,-0.188 0.757614,-0.2525 0.248377,-0.062 0.510614,-0.059 0.757614,-0.1263 0.218674,-0.06 0.420897,-0.1684 0.631346,-0.2525 0.252538,-0.084 0.499364,-0.188 0.757614,-0.2526 0.248378,-0.062 0.50769,-0.071 0.757615,-0.1262 0.129929,-0.029 0.249682,-0.094 0.378807,-0.1263 0.04083,-0.01 0.08862,0.019 0.126269,0 0.03287,-0.016 0.15383,-0.225 0.252538,-0.1263 0.08709,0.087 -0.09339,0.2361 -0.126269,0.2526 -0.03765,0.019 -0.08862,-0.019 -0.126269,0 -0.151523,0.076 -0.227284,0.303 -0.378807,0.3788 -0.03765,0.019 -0.08862,-0.019 -0.126269,0 -0.05324,0.027 -0.07303,0.1 -0.126269,0.1262 -0.0993,0.05 -0.505077,-0.1094 -0.505077,0.1263 0,0.042 0.08544,0.01 0.126269,0 0.129126,-0.032 0.250829,-0.09 0.378808,-0.1263 0.166863,-0.048 0.338213,-0.079 0.505076,-0.1262 0.255956,-0.073 0.505076,-0.1684 0.757614,-0.2526 0.264869,-0.088 0.608708,-0.2525 0.883884,-0.2525 0.04209,0 0.08862,0.019 0.126269,0 0.05324,-0.027 0.06675,-0.1263 0.126269,-0.1263 0.04209,0 0.01882,0.089 0,0.1263 -0.02662,0.053 -0.08418,0.084 -0.126269,0.1263 -0.04209,0.042 -0.07303,0.1 -0.126269,0.1262 -0.03765,0.019 -0.08862,-0.019 -0.126269,0 -0.279188,0.1396 -0.03918,0.078 -0.126269,0.2526 -0.139594,0.2791 -0.07837,0.039 -0.252539,0.1262 -0.05324,0.027 -0.07303,0.1 -0.126269,0.1263 -0.03765,0.019 -0.08862,-0.019 -0.126269,0 -0.05324,0.027 -0.08418,0.084 -0.126269,0.1263 -0.04209,0.042 -0.179509,0.1529 -0.126269,0.1262 0.219513,-0.1097 0.398517,-0.3012 0.631346,-0.3788 1.951678,-0.6505 -0.117825,0.4031 1.641497,-0.3788 0.43224,-0.1921 0.2585,-0.2545 0.631346,-0.3788 0.252538,-0.084 0.04209,0.042 0.126269,0.1263 0.0041,0 0.348183,0 0.378807,0 0.08782,0 0.585682,-0.023 0.631345,0 0.05324,0.027 0.07303,0.1 0.126269,0.1263 0.03765,0.019 0.08418,0 0.126269,0 0.04209,0 0.08418,0 0.12627,0 0.04209,0 0.156031,-0.03 0.126269,0 -0.06655,0.067 -0.17423,0.074 -0.252539,0.1262 -0.04953,0.033 -0.07303,0.1 -0.126269,0.1263 -0.03765,0.019 -0.09651,-0.03 -0.126269,0 -0.261255,0.2612 0.399233,-0.01 -0.126269,0.2525 -0.03765,0.019 -0.08862,-0.019 -0.126269,0 -0.03353,0.017 -0.362044,0.3453 -0.378807,0.3788 -0.01882,0.038 0.02976,0.096 0,0.1263 -0.02976,0.03 -0.09651,-0.03 -0.126269,0 -0.02976,0.03 -0.02976,0.097 0,0.1263 0.02976,0.03 0.08418,0 0.126269,0 0.04209,0 0.08418,0 0.126269,0 0.462987,0 0.925973,0 1.38896,0 0.04209,0 0.08418,0 0.126269,0 0.04209,0 0.09651,0.03 0.126269,0 0.02976,-0.03 0.04209,-0.1263 0,-0.1263 -0.05952,0 -0.08418,0.084 -0.126269,0.1263 -0.04209,0.042 -0.08418,0.084 -0.126269,0.1262 -0.04209,0.042 -0.08418,0.084 -0.126269,0.1263 -0.04209,0.042 -0.07303,0.1 -0.126269,0.1263 -0.03765,0.019 -0.09651,-0.03 -0.126269,0 -0.02976,0.03 0,0.084 0,0.1263 0,0.042 0,0.084 0,0.1262 0,0.042 -0.03502,0.1029 0,0.1263 0.209368,0.1396 0.311916,0.1263 0.505076,0.1263 0.210448,0 0.42376,0.035 0.631345,0 0.131289,-0.022 0.252538,-0.084 0.378807,-0.1263 0.12627,-0.042 0.25976,-0.067 0.378808,-0.1263 0.05324,-0.027 0.07303,-0.1 0.126269,-0.1262 0.03765,-0.019 0.08862,0.019 0.126269,0 0.05324,-0.027 0.06675,-0.1263 0.126269,-0.1263 0.01486,0 -0.01857,0.3602 0,0.3788 0.02976,0.03 0.09651,-0.03 0.126269,0 0.02976,0.03 0,0.084 0,0.1263 0,0.09 0.01632,0.7249 0,0.7576 -0.02662,0.053 -0.09965,0.073 -0.126269,0.1262 -0.01921,0.038 0,0.322 0,0.3788 0,0.042 -0.02976,0.097 0,0.1263 0.02976,0.03 0.08418,0 0.126269,0 0.05954,0 0.625623,-0.01 0.631345,0 0.02976,0.03 -0.02976,0.096 0,0.1263 0.01781,0.018 0.352906,0.013 0.378807,0 0.05324,-0.027 0.07303,-0.1 0.12627,-0.1263 0.03765,-0.019 0.08862,0.019 0.126269,0 0.05324,-0.027 0.07303,-0.1 0.126269,-0.1263 0.03765,-0.019 0.08418,0 0.126269,0 0.04209,0 0.09651,-0.03 0.126269,0 0.02976,0.03 -0.01882,0.089 0,0.1263 0.07576,0.1515 0.303046,0.2273 0.378807,0.3788 0.01882,0.038 -0.02976,0.096 0,0.1263 0.02976,0.03 0.09651,-0.03 0.126269,0 0.02976,0.03 -0.01882,0.089 0,0.1263 0.02662,0.053 0.09965,0.073 0.126269,0.1262 0.01882,0.038 -0.02976,0.097 0,0.1263 0.02976,0.03 0.09651,-0.03 0.126269,0 0.02976,0.03 -0.01882,0.089 0,0.1263 0.05324,0.1064 0.199299,0.146 0.252538,0.2525 0.01882,0.038 -0.01882,0.089 0,0.1263 0.05324,0.1065 0.199299,0.146 0.252539,0.2525 0.01882,0.038 -0.01882,0.089 0,0.1263 0.05324,0.1065 0.199298,0.146 0.252538,0.2525 0.01882,0.038 -0.01882,0.089 0,0.1263 0.02662,0.053 0.09965,0.073 0.126269,0.1263 0.01921,0.038 0,0.3219 0,0.3788 0,0.057 0.01921,0.3403 0,0.3788 -0.02662,0.053 -0.08418,0.084 -0.126269,0.1262 -0.04209,0.042 -0.07303,0.1 -0.126269,0.1263 -0.03765,0.019 -0.08862,-0.019 -0.126269,0 -0.05324,0.027 -0.07303,0.1 -0.12627,0.1263 -0.03765,0.019 -0.08418,0 -0.126269,0 -0.04209,0 -0.08418,0 -0.126269,0"
       id="path3058"
       inkscape:connector-curvature="0" />
    <path
       style="fill:none;stroke:#000000;stroke-width:1px;stroke-linecap:butt;stroke-linejoin:miter;stroke-opacity:1"
       d="m 17.803938,1014.3552 c -0.210448,0.1684 -0.424305,0.3326 -0.631345,0.5051 -0.18006,0.15 -0.339249,0.3392 -0.505076,0.5051 -0.294628,0.2946 -0.589256,0.5892 -0.883884,0.8838 -0.126269,0.1263 -0.252538,0.2526 -0.378807,0.3789 -0.04209,0.042 -0.08418,0.1683 -0.126269,0.1262 -0.04209,-0.042 0.07865,-0.09 0.126269,-0.1262 0.121405,-0.091 0.263585,-0.1538 0.378807,-0.2526 0.180776,-0.1549 0.336718,-0.3367 0.505077,-0.5051 0.168358,-0.1683 0.336717,-0.3367 0.505076,-0.505 0.336717,-0.3368 0.719814,-0.6327 1.010152,-1.0102 0.138197,-0.1796 0.151173,-0.4286 0.252539,-0.6313 0.01676,-0.034 0.345281,-0.3621 0.378807,-0.3788 0.07529,-0.038 0.193014,0.059 0.252538,0 0.02976,-0.03 0.02772,-0.158 0,-0.1263 -0.630249,0.7203 -1.010153,1.0104 -1.010153,1.894 0,0.09 -0.01632,0.725 0,0.7576 0.02662,0.053 0.08418,0.084 0.126269,0.1263 0.04209,0.042 0.08418,0.084 0.126269,0.1263 0.08418,0.084 0.153485,0.1865 0.252539,0.2525 0.07831,0.052 0.174229,0.074 0.252538,0.1263 0.04953,0.033 0.07303,0.1 0.126269,0.1263 0.03765,0.019 0.08862,-0.019 0.126269,0 0.05324,0.027 0.0698,0.1074 0.126269,0.1262 0.01228,0 0.61661,0 0.631345,0 0.09131,-0.023 0.165154,-0.091 0.252538,-0.1262 0.24716,-0.099 0.51952,-0.1335 0.757615,-0.2526 0.135735,-0.068 0.243072,-0.1847 0.378807,-0.2525 1.045552,-0.5228 -0.327994,0.3449 0.757614,-0.3788 0.12627,-0.084 0.260306,-0.1578 0.378808,-0.2526 0.177024,-0.1416 0.342388,-0.3424 0.505076,-0.505 0.04209,-0.042 0.126269,-0.067 0.126269,-0.1263 0,-0.042 -0.085,-0.01 -0.126269,0 -0.34034,0.068 -0.67196,0.1745 -1.010153,0.2525 -2.220688,0.5125 -0.143322,-0.01 -2.020305,0.5051 -0.167425,0.046 -0.340441,0.071 -0.505076,0.1263 -0.914619,0.3048 0.199077,-0.036 -0.378807,0.2525 -0.03765,0.019 -0.168359,0 -0.126269,0 0.168359,0 0.339987,0.033 0.505076,0 0.130515,-0.026 0.247519,-0.1044 0.378807,-0.1263 0.124551,-0.021 0.253807,0.018 0.378807,0 0.171797,-0.024 0.336718,-0.084 0.505077,-0.1262 0.168358,-0.042 0.336717,-0.084 0.505076,-0.1263 0.336717,-0.084 0.673435,-0.1684 1.010153,-0.2525 0.319285,-0.08 0.581971,-0.1318 0.883883,-0.2526 0.08738,-0.035 0.165154,-0.091 0.252538,-0.1262 0.126269,-0.042 0.252538,-0.084 0.378807,-0.1263 0.04209,-0.042 0.07303,-0.1 0.126269,-0.1263 0.07546,-0.038 0.252539,0.083 0.252539,-0.1263 0,-0.2034 -0.156521,0.062 -0.252539,0.1263 -0.233112,0.1554 -0.524502,0.2234 -0.757614,0.3788 -0.108958,0.073 -0.28018,0.2802 -0.378807,0.3788 -0.04209,0.042 -0.08418,0.084 -0.126269,0.1263 -0.04209,0.042 -0.09965,0.073 -0.126269,0.1263 -0.01882,0.038 -0.04209,0.1262 0,0.1262 0.05952,0 0.08418,-0.084 0.126269,-0.1262 0.126269,-0.1263 0.252538,-0.2526 0.378807,-0.3788 0.168359,-0.2947 0.285884,-0.6249 0.505076,-0.8839 0.250657,-0.2963 0.609492,-0.4832 0.883884,-0.7576 0.207703,-0.2077 1.156278,-1.3701 1.388959,-1.6415 0.04872,-0.057 0.365498,-0.2659 0.252539,-0.3788 -0.02976,-0.03 -0.08862,-0.019 -0.126269,0 -0.05324,0.027 -0.08418,0.084 -0.12627,0.1262 -0.120849,0.1209 -0.242241,0.2764 -0.378807,0.3788 -0.261741,0.1963 -0.577154,0.3824 -0.883883,0.5051 -0.12358,0.049 -0.255228,0.077 -0.378807,0.1263 -0.174768,0.07 -0.336718,0.1683 -0.505077,0.2525 -0.08418,0.042 -0.174229,0.074 -0.252538,0.1263 -0.05352,0.036 -0.352685,0.3266 -0.378807,0.3788 -0.01882,0.038 0.02976,0.096 0,0.1263 -0.02976,0.03 -0.08862,-0.019 -0.126269,0 -0.05324,0.027 -0.08418,0.084 -0.126269,0.1262 -0.09922,0.099 -0.591131,0.5509 -0.631346,0.6314 -0.01882,0.038 -0.02976,0.096 0,0.1262 0.220385,0.2204 0.651218,0.1263 0.883884,0.1263 0.294628,0 0.589256,0 0.883883,0 0.589256,0 1.181436,0.059 1.767767,0 0.681771,-0.068 1.342867,-0.2761 2.020305,-0.3788 0.71233,-0.1079 1.432039,-0.1603 2.146575,-0.2525 1.056976,-0.1364 2.003059,-0.2634 3.030457,-0.5051 0.298272,-0.07 0.596976,-0.145 0.883884,-0.2525 0.05573,-0.021 0.126269,-0.067 0.126269,-0.1263 0,-0.042 -0.08862,-0.019 -0.126269,0 -0.271471,0.1357 -0.494092,0.3545 -0.757615,0.5051 -0.16343,0.093 -0.345457,0.1527 -0.505076,0.2525 -0.17846,0.1115 -0.326616,0.2673 -0.505076,0.3788 -0.15962,0.1 -0.336718,0.1684 -0.505076,0.2525 -0.168359,0.084 -0.332065,0.1784 -0.505077,0.2526 -0.244675,0.1048 -0.510455,0.1537 -0.757614,0.2525 -0.215521,-0.045 -0.243072,0.1847 -0.378807,0.2526 -0.03765,0.019 -0.08862,-0.019 -0.126269,0 -0.10648,0.053 -0.146059,0.1993 -0.252539,0.2525 -0.03765,0.019 -0.08862,-0.019 -0.126269,0 -0.05324,0.027 -0.08418,0.084 -0.126269,0.1263 -0.04209,0.042 -0.168358,0.084 -0.126269,0.1262 0.05952,0.06 0.169504,-0.014 0.252538,0 0.171179,0.029 0.332598,0.1071 0.505077,0.1263 0.209161,0.023 0.420897,0 0.631345,0 0.505076,0 1.010153,0 1.515229,0 0.126269,0 0.252538,0 0.378807,0 0.04209,0 0.08418,0 0.126269,0 0.04209,0 0.08862,0.019 0.126269,0 0.05324,-0.027 0.168359,-0.1684 0.126269,-0.1263 -0.126269,0.1263 -0.239366,0.2673 -0.378807,0.3788 -0.764445,0.6116 0.104098,-0.2303 -0.378807,0.2526 -0.09484,0.095 -0.252538,0.2793 -0.252538,0.1263 0,-0.042 0.08862,-0.019 0.126269,0 0.05324,0.027 0.0679,0.1145 0.126269,0.1262 0.165089,0.033 0.336717,0 0.505076,0 0.126269,0 0.252538,0 0.378807,0 0.126269,0 0.254256,0.021 0.378807,0 0.131289,-0.022 0.248293,-0.1001 0.378808,-0.1262 0.08254,-0.017 0.172678,0.027 0.252538,0 0.112938,-0.038 0.146059,-0.1993 0.252538,-0.2526 0.168359,-0.084 0.126269,0.1263 0.126269,-0.1263"
       id="path3060"
       inkscape:connector-curvature="0" />
    <path
       style="fill:none;stroke:#000000;stroke-width:1px;stroke-linecap:butt;stroke-linejoin:miter;stroke-opacity:1"
       d="m 22.728432,1010.5671 4.419417,3.9144"
       id="path3062"
       inkscape:connector-curvature="0" />
    <path
       style="fill:none;stroke:#000000;stroke-width:1px;stroke-linecap:butt;stroke-linejoin:miter;stroke-opacity:1"
       d="m 28.915616,1013.2188 -4.671955,-1.0102"
       id="path3064"
       inkscape:connector-curvature="0" />
    <path
       style="fill:none;stroke:#000000;stroke-width:1px;stroke-linecap:butt;stroke-linejoin:miter;stroke-opacity:1"
       d="m 21.465741,1013.9764 -3.661803,0.5051"
       id="path3066"
       inkscape:connector-curvature="0" />
    <path
       style="fill:#4d4d4d;stroke:#000000;stroke-width:1px;stroke-linecap:butt;stroke-linejoin:miter;stroke-opacity:1"
       d="m 13.51079,1023.9517 4.293148,-2.0203 6.439723,1.1364 6.944799,-1.2627 5.934646,3.6618 -1.894036,8.5863 -2.146575,3.7881 -17.803938,-0.1263 -1.894036,-3.9143 -2.272843,-8.2075 z"
       id="path3074"
       inkscape:connector-curvature="0"
       sodipodi:nodetypes="ccccccccccc" />
    <path
       style="fill:#ff0000;stroke:#000000;stroke-width:1px;stroke-linecap:butt;stroke-linejoin:miter;stroke-opacity:1"
       d="m 21.213203,1027.361 c 0.168359,-0.1263 0.329973,-0.2621 0.505076,-0.3788 0.07831,-0.052 0.17423,-0.074 0.252539,-0.1263 0.05251,-0.035 0.482495,-0.4599 0.505076,-0.5051 0.08708,-0.1741 -0.152919,-0.1129 0.126269,-0.2525 0.03765,-0.019 0.09651,0.03 0.126269,0 0.02976,-0.03 -0.02976,-0.097 0,-0.1263 0.04432,-0.044 0.544127,0.044 0.631345,0 0.05324,-0.027 0.07303,-0.1 0.126269,-0.1262 0.0332,-0.017 0.439048,0 0.505077,0 0.252538,0 0.505076,0 0.757614,0 0.04209,0 0.08418,0 0.126269,0 0.04209,0 0.08862,-0.019 0.126269,0 0.05324,0.027 0.07303,0.1 0.126269,0.1262 0.07529,0.038 0.177246,-0.038 0.252538,0 0.05324,0.027 0.07303,0.1 0.126269,0.1263 0.07529,0.038 0.177246,-0.038 0.252539,0 0.05324,0.027 0.07303,0.1 0.126269,0.1263 0.07529,0.038 0.177246,-0.038 0.252538,0 0.05324,0.027 0.07303,0.1 0.126269,0.1262 0.03765,0.019 0.08862,-0.019 0.126269,0 0.05324,0.027 0.07303,0.1 0.126269,0.1263 0.03765,0.019 0.08862,-0.019 0.126269,0 0.05324,0.027 0.07303,0.1 0.126269,0.1263 0.07529,0.038 0.193014,-0.06 0.252538,0 0.02976,0.03 -0.02976,0.096 0,0.1263 0.02976,0.03 0.08862,-0.019 0.126269,0 0.10648,0.053 0.146059,0.1993 0.252539,0.2525 0.03765,0.019 0.08862,-0.019 0.126269,0 0.05324,0.027 0.07303,0.1 0.126269,0.1263 0.03765,0.019 0.09651,-0.03 0.126269,0 0.02976,0.03 -0.02976,0.097 0,0.1262 0.261255,0.2613 -0.01021,-0.3992 0.252538,0.1263 0.01882,0.038 -0.01882,0.089 0,0.1263 0.02662,0.053 0.09965,0.073 0.126269,0.1262 0.01882,0.038 -0.01882,0.089 0,0.1263 0.262751,0.5255 -0.0087,-0.135 0.252538,0.1263 0.05952,0.059 -0.03765,0.1772 0,0.2525 0.02662,0.053 0.09965,0.073 0.126269,0.1263 0.01882,0.038 0,0.084 0,0.1263 0.04209,0.042 0.09965,0.073 0.126269,0.1262 0.01882,0.038 -0.01882,0.089 0,0.1263 0.02662,0.053 0.09965,0.073 0.126269,0.1263 0.03765,0.075 -0.03765,0.1772 0,0.2525 0.02662,0.053 0.09965,0.073 0.126269,0.1263 0.03765,0.075 -0.03765,0.1772 0,0.2525 0.02662,0.053 0.09965,0.073 0.126269,0.1263 0.03765,0.075 -0.03765,0.1772 0,0.2525 0.02662,0.053 0.09965,0.073 0.126269,0.1263 0.007,0.014 0.007,0.6172 0,0.6313 -0.02662,0.053 -0.09965,0.073 -0.126269,0.1263 -0.05051,0.101 0.05051,0.2778 0,0.3788 -0.05324,0.1065 -0.199298,0.1461 -0.252538,0.2525 -0.01882,0.038 0.01882,0.089 0,0.1263 -0.02662,0.053 -0.08418,0.084 -0.126269,0.1263 -0.04209,0.042 -0.08418,0.084 -0.126269,0.1262 -0.210448,0.2105 -0.420897,0.4209 -0.631345,0.6314 -0.210449,0.2104 -0.420897,0.4209 -0.631346,0.6313 -0.04209,0.042 -0.08418,0.084 -0.126269,0.1263 -0.04209,0.042 -0.07303,0.1 -0.126269,0.1263 -0.03765,0.019 -0.08862,-0.019 -0.126269,0 -0.151523,0.076 -0.227284,0.303 -0.378807,0.3788 -0.03765,0.019 -0.08862,-0.019 -0.126269,0 -0.106479,0.053 -0.146059,0.1993 -0.252538,0.2525 -0.03765,0.019 -0.08862,-0.019 -0.126269,0 -0.05324,0.027 -0.07303,0.1 -0.126269,0.1263 -0.07529,0.038 -0.177246,-0.038 -0.252538,0 -0.05324,0.027 -0.07303,0.1 -0.12627,0.1263 -0.07518,0.038 -0.525035,-0.035 -0.631345,0 -0.08929,0.03 -0.163252,0.097 -0.252538,0.1262 -0.07947,0.026 -0.517531,0 -0.631345,0 -0.252538,0 -0.505077,0 -0.757615,0 -0.05687,0 -0.340379,0.019 -0.378807,0 -0.05324,-0.027 -0.07303,-0.1 -0.126269,-0.1262 -0.101015,-0.051 -0.277792,0.051 -0.378807,0 -0.05324,-0.027 -0.07303,-0.1 -0.126269,-0.1263 -0.03765,-0.019 -0.08862,0.019 -0.126269,0 -0.05324,-0.027 -0.07303,-0.1 -0.126269,-0.1263 -0.03765,-0.019 -0.08418,0 -0.126269,0 -0.04209,-0.042 -0.07303,-0.1 -0.12627,-0.1262 -0.03765,-0.019 -0.08862,0.019 -0.126269,0 -0.05324,-0.027 -0.07303,-0.1 -0.126269,-0.1263 -0.03765,-0.019 -0.08862,0.019 -0.126269,0 -0.05324,-0.027 -0.07303,-0.1 -0.126269,-0.1263 -0.03765,-0.019 -0.08862,0.019 -0.126269,0 -0.151523,-0.076 -0.227284,-0.303 -0.378807,-0.3788 -0.371586,-0.1858 0.166244,0.2925 -0.252538,-0.1263 -0.04209,-0.042 -0.08418,-0.084 -0.126269,-0.1262 -0.04209,-0.042 -0.07303,-0.1 -0.126269,-0.1263 -0.07529,-0.038 -0.193015,0.059 -0.252539,0 -0.02976,-0.03 0.02976,-0.097 0,-0.1263 -0.02976,-0.03 -0.09651,0.03 -0.126269,0 -0.02976,-0.03 0.02976,-0.096 0,-0.1262 -0.02976,-0.03 -0.09651,0.03 -0.126269,0 -0.02976,-0.03 0.02976,-0.097 0,-0.1263 -0.261255,-0.2613 0.01021,0.3992 -0.252538,-0.1263 -0.03765,-0.075 0.03765,-0.1772 0,-0.2525 -0.02662,-0.053 -0.09965,-0.073 -0.126269,-0.1263 -0.01632,-0.033 0,-0.6681 0,-0.7576 0,-0.09 -0.01632,-0.725 0,-0.7576 0.02662,-0.053 0.09965,-0.073 0.126269,-0.1263 0.01882,-0.038 -0.01882,-0.089 0,-0.1262 0.02662,-0.053 0.09965,-0.073 0.126269,-0.1263 0.01882,-0.038 -0.01882,-0.089 0,-0.1263 0.02662,-0.053 0.09965,-0.073 0.126269,-0.1263 0.01882,-0.038 -0.01882,-0.089 0,-0.1262 0.02662,-0.053 0.09965,-0.073 0.126269,-0.1263 0.01882,-0.038 -0.01882,-0.089 0,-0.1263 0.02662,-0.053 0.09965,-0.073 0.126269,-0.1262 0.01882,-0.038 -0.01882,-0.089 0,-0.1263 0.05324,-0.1065 0.199299,-0.1461 0.252539,-0.2525 0.01882,-0.038 0,-0.084 0,-0.1263 0.04209,-0.042 0.09965,-0.073 0.126269,-0.1263 0.01882,-0.038 -0.01882,-0.089 0,-0.1262 0.04602,-0.092 0.301055,-0.2856 0.378807,-0.3789 0.172533,-0.207 0.314507,-0.4407 0.505076,-0.6313 0.14881,-0.1488 0.324618,-0.2705 0.505076,-0.3788 0.03609,-0.022 0.09651,0.03 0.12627,0 0.02976,-0.03 -0.02976,-0.097 0,-0.1263 0.02976,-0.03 0.08862,0.019 0.126269,0 0.312062,-0.156 -0.04359,-0.1262 0.252538,-0.1262"
       id="path3078"
       inkscape:connector-curvature="0" />
    <path
       style="fill:#ff0000;stroke:#000000;stroke-width:1px;stroke-linecap:butt;stroke-linejoin:miter;stroke-opacity:1"
       d="m 24.748737,1023.9517 c -0.08418,0.1684 -0.08418,0.5893 -0.252538,0.5051 -0.168359,-0.084 0.385637,-0.6382 0.252538,-0.5051 -0.17354,0.1736 -0.242671,0.4272 -0.378807,0.6314 -0.03302,0.05 -0.09965,0.073 -0.126269,0.1263 -0.01882,0.038 0.01882,0.089 0,0.1262 -0.02662,0.053 -0.09965,0.073 -0.126269,0.1263 -0.01882,0.038 0.01882,0.089 0,0.1263 -0.02662,0.053 -0.09965,0.073 -0.126269,0.1262 -0.01882,0.038 0.01882,0.089 0,0.1263 -0.02662,0.053 -0.09965,0.073 -0.126269,0.1263 -0.01882,0.038 0.01882,0.089 0,0.1262 -0.07576,0.1516 -0.303046,0.2273 -0.378808,0.3788 -0.01882,0.038 0.01882,0.089 0,0.1263 -0.05324,0.1065 -0.186502,0.1535 -0.252538,0.2525 -0.05221,0.078 -0.07406,0.1743 -0.126269,0.2526 -0.03302,0.049 -0.09325,0.077 -0.126269,0.1263 -0.278191,0.063 -0.06675,0.2597 -0.126269,0.3788 -0.07576,0.1515 -0.303046,0.2272 -0.378807,0.3788 -0.03765,0.075 0.03765,0.1772 0,0.2525 -0.02662,0.053 -0.09965,0.073 -0.126269,0.1263 -0.01882,0.038 0.01882,0.089 0,0.1262 -0.02662,0.053 -0.107446,0.07 -0.126269,0.1263 -0.02662,0.08 0.02042,0.1709 0,0.2526 -0.02283,0.091 -0.103443,0.1612 -0.126269,0.2525 -0.02042,0.082 0.02042,0.1709 0,0.2525 -0.02283,0.091 -0.09651,0.1633 -0.126269,0.2526 -0.01331,0.04 0.01331,0.086 0,0.1262 -0.02976,0.089 -0.09651,0.1633 -0.126269,0.2526 -0.01331,0.04 0.01882,0.089 0,0.1262 -0.02662,0.053 -0.09965,0.073 -0.12627,0.1263 -0.01882,0.038 0.01882,0.089 0,0.1263 -0.02662,0.053 -0.09965,0.073 -0.126269,0.1263 -0.05051,0.101 0.05051,0.2777 0,0.3788 -0.02662,0.053 -0.09965,0.073 -0.126269,0.1262 -0.03765,0.075 0.02662,0.1727 0,0.2526 -0.02976,0.089 -0.09651,0.1632 -0.126269,0.2525 -0.01331,0.04 0.01331,0.086 0,0.1263 -0.304873,0.9146 0.0364,-0.1991 -0.252538,0.3788 -0.01882,0.038 0.01882,0.089 0,0.1262 -0.02662,0.053 -0.09965,0.073 -0.126269,0.1263 -0.03765,0.075 0.03765,0.1773 0,0.2526 -0.02662,0.053 -0.09965,0.073 -0.126269,0.1262 -0.03765,0.075 0.03765,0.1773 0,0.2526 -0.02662,0.053 -0.09965,0.073 -0.126269,0.1262 -0.01882,0.038 0.01882,0.089 0,0.1263 -0.02662,0.053 -0.09965,0.073 -0.126269,0.1263 -0.01882,0.038 0.01882,0.089 0,0.1262 -0.02662,0.053 -0.09965,0.073 -0.126269,0.1263 -0.01882,0.038 0.01882,0.089 0,0.1263 -0.02662,0.053 -0.09965,0.073 -0.126269,0.1262 -0.05051,0.1011 0.05051,0.2778 0,0.3789 -0.02662,0.053 -0.09965,0.073 -0.126269,0.1262 -0.03765,0.075 0.03765,0.1773 0,0.2526 -0.02662,0.053 -0.09965,0.073 -0.126269,0.1262 -0.03765,0.075 0.03765,0.1773 0,0.2526 -0.02662,0.053 -0.09965,0.073 -0.12627,0.1262 -0.03765,0.075 0.03765,0.1773 0,0.2526 -0.05324,0.1065 -0.199298,0.146 -0.252538,0.2525 -0.01882,0.038 0.01882,0.089 0,0.1263 -0.02662,0.053 -0.09965,0.073 -0.126269,0.1263 -0.01882,0.038 0.01882,0.089 0,0.1262 -0.02662,0.053 -0.09965,0.073 -0.126269,0.1263 -0.02503,0.05 0.02581,0.353 0,0.3788 -0.02976,0.03 -0.09651,-0.03 -0.126269,0 -0.05952,0.06 0.03765,0.1772 0,0.2525 -0.156031,0.3121 -0.126269,-0.044 -0.126269,0.2526"
       id="path3080"
       inkscape:connector-curvature="0" />
    <path
       style="fill:#ff0000;stroke:#000000;stroke-width:1px;stroke-linecap:butt;stroke-linejoin:miter;stroke-opacity:1"
       d="m 24.117392,1023.8255 c 0,1.0923 -0.05324,-0.014 0.126269,0.8839 0.04127,0.2063 -0.0346,0.4237 0,0.6313 0.02188,0.1313 0.104387,0.2475 0.126269,0.3788 0.04152,0.2491 -0.04152,0.5085 0,0.7576 0.04376,0.2626 0.214892,0.4941 0.252538,0.7576 0.02381,0.1667 -0.02381,0.3384 0,0.5051 0.01882,0.1318 0.08418,0.2525 0.126269,0.3788 0.08418,0.2526 0.168359,0.5051 0.252538,0.7576 0.126269,0.3788 0.252538,0.7576 0.378807,1.1365 0.08418,0.2525 0.153675,0.5104 0.252539,0.7576 0.03495,0.087 0.08418,0.1683 0.126269,0.2525 0.04209,0.084 0.07406,0.1742 0.126269,0.2525 0.03302,0.05 0.107446,0.07 0.126269,0.1263 0.02662,0.08 -0.02662,0.1727 0,0.2525 0.01882,0.057 0.09965,0.073 0.126269,0.1263 0.01882,0.038 -0.01882,0.089 0,0.1263 0.02662,0.053 0.09965,0.073 0.126269,0.1263 0.05051,0.101 -0.05051,0.2777 0,0.3788 0.02662,0.053 0.09965,0.073 0.126269,0.1262 0.01882,0.038 -0.01882,0.089 0,0.1263 0.02662,0.053 0.09965,0.073 0.126269,0.1263 0.03725,0.074 -0.02895,0.2919 0,0.3788 0.02976,0.089 0.09651,0.1632 0.126269,0.2525 0.03993,0.1198 -0.03993,0.259 0,0.3788 0.01882,0.057 0.09965,0.073 0.126269,0.1263 0.04361,0.087 -0.04432,0.587 0,0.6313 0.02976,0.03 0.09651,-0.03 0.126269,0 0.02976,0.03 0,0.084 0,0.1263 0,0.042 0,0.084 0,0.1263 0,0.089 -0.01632,0.7249 0,0.7576 0.02662,0.053 0.09965,0.073 0.126269,0.1263 0.03968,0.079 -0.03968,0.4257 0,0.505 0.156031,0.3121 0.126269,-0.044 0.126269,0.2526"
       id="path3082"
       inkscape:connector-curvature="0" />
    <path
       style="fill:#ff0000;stroke:#000000;stroke-width:1px;stroke-linecap:butt;stroke-linejoin:miter;stroke-opacity:1"
       d="m 17.5514,1027.1085 c 0.168359,0.084 0.336718,0.1683 0.505076,0.2525 0.04209,0.042 0.07674,0.093 0.12627,0.1263 0.07831,0.052 0.174229,0.074 0.252538,0.1262 0.09905,0.066 0.146058,0.1993 0.252538,0.2526 0.03765,0.019 0.08862,-0.019 0.126269,0 0.106479,0.053 0.153484,0.1865 0.252538,0.2525 0.07831,0.052 0.174229,0.074 0.252538,0.1263 0.04953,0.033 0.07674,0.093 0.126269,0.1263 0.185793,0.1238 0.426003,0.184 0.631346,0.2525 0.252538,0.084 0.510455,0.1537 0.757614,0.2525 0.258693,0.1035 0.493488,0.2908 0.757614,0.3788 0.03993,0.013 0.08634,-0.013 0.126269,0 0.08929,0.03 0.165155,0.091 0.252539,0.1263 0.123579,0.049 0.255227,0.077 0.378807,0.1263 0.08738,0.035 0.165154,0.091 0.252538,0.1262 0.616832,0.2468 1.277204,0.3847 1.894036,0.6314 0.08738,0.035 0.168359,0.084 0.252538,0.1263 0.126269,0.042 0.255228,0.077 0.378807,0.1262 0.174768,0.07 0.330309,0.1827 0.505077,0.2526 0.247159,0.099 0.505076,0.1683 0.757614,0.2525 0.252538,0.084 0.501658,0.1794 0.757614,0.2525 0.166863,0.048 0.338214,0.079 0.505077,0.1263 0.255956,0.073 0.510455,0.1537 0.757614,0.2525 0.08738,0.035 0.161233,0.1035 0.252538,0.1263 0.08167,0.02 0.172679,-0.027 0.252538,0 0.112939,0.038 0.146059,0.1993 0.252538,0.2526 0.07529,0.038 0.177246,-0.038 0.252539,0 0.05324,0.027 0.07303,0.1 0.126269,0.1262 0.03765,0.019 0.08862,-0.019 0.126269,0 0.05324,0.027 0.07674,0.093 0.126269,0.1263 0.07831,0.052 0.174229,0.074 0.252538,0.1263 0.04953,0.033 0.0698,0.1074 0.126269,0.1262 0.07986,0.027 0.172679,-0.027 0.252538,0 0.112939,0.038 0.146059,0.1993 0.252538,0.2526 0.03765,0.019 0.08862,-0.019 0.126269,0 0.05324,0.027 0.07303,0.1 0.126269,0.1262 0.03765,0.019 0.08862,-0.019 0.126269,0 0.05324,0.027 0.07303,0.1 0.12627,0.1263 0.07529,0.038 0.193014,-0.06 0.252538,0 0.02976,0.03 -0.02976,0.096 0,0.1263 0.02976,0.03 0.08862,-0.019 0.126269,0 0.05324,0.027 0.07303,0.1 0.126269,0.1262 0.03765,0.019 0.08418,0 0.126269,0 0.04209,0 0.08418,0 0.126269,0"
       id="path3084"
       inkscape:connector-curvature="0" />
    <rect
       style="fill:#552200;fill-opacity:1"
       id="rect3098"
       width="6.6922607"
       height="1.6414979"
       x="14.647212"
       y="42.297588"
       transform="translate(0,1002.3622)" />
    <rect
       style="fill:#552200;fill-opacity:1"
       id="rect3100"
       width="6.6922607"
       height="1.5152289"
       x="25.75889"
       y="42.045048"
       transform="translate(0,1002.3622)" />
    <path
       style="fill:#aaeeff;stroke:#000000;stroke-width:1px;stroke-linecap:butt;stroke-linejoin:miter;stroke-opacity:1"
       d="m 15.026019,35.857864 -0.378807,6.439723 7.197337,-0.252538 0.378807,-3.030458 2.77792,0.126269 0,3.030458 7.954951,-0.252538 0.378807,-6.313454 z"
       id="path3096"
       inkscape:connector-curvature="0"
       transform="translate(0,1002.3622)" />
    <path
       style="fill:#ffe680;stroke:#000000;stroke-width:1px;stroke-linecap:butt;stroke-linejoin:miter;stroke-opacity:1"
       d="m 10.85914,1026.477 -1.5152289,3.7881 -0.1262691,4.5457 0.6313453,2.1466 2.5253807,-0.5051 0.12627,-4.672 z"
       id="path3102"
       inkscape:connector-curvature="0" />
    <path
       style="fill:#ffe680;stroke:#000000;stroke-width:1px;stroke-linecap:butt;stroke-linejoin:miter;stroke-opacity:1"
       d="m 37.375645,1026.4139 1.515229,3.7881 0.126269,4.5457 -0.631345,2.1465 -2.525381,-0.505 -0.12627,-4.672 z"
       id="path3102-5"
       inkscape:connector-curvature="0" />
  </g>
</svg>
